<svg width="24" height="25" viewBox="0 0 24 25" xmlns="http://www.w3.org/2000/svg">
<g id="fi:heart">
<path id="Vector" d="M20.8401 5.10987C20.3294 4.59888 19.7229 4.19352 19.0555 3.91696C18.388 3.64039 17.6726 3.49805 16.9501 3.49805C16.2276 3.49805 15.5122 3.64039 14.8448 3.91696C14.1773 4.19352 13.5709 4.59888 13.0601 5.10987L12.0001 6.16987L10.9401 5.10987C9.90843 4.07818 8.50915 3.49858 7.05012 3.49858C5.59109 3.49858 4.19181 4.07818 3.16012 5.10987C2.12843 6.14156 1.54883 7.54084 1.54883 8.99987C1.54883 10.4589 2.12843 11.8582 3.16012 12.8899L4.22012 13.9499L12.0001 21.7299L19.7801 13.9499L20.8401 12.8899C21.3511 12.3791 21.7565 11.7727 22.033 11.1052C22.3096 10.4378 22.4519 9.72236 22.4519 8.99987C22.4519 8.27738 22.3096 7.56198 22.033 6.89452C21.7565 6.22706 21.3511 5.62063 20.8401 5.10987V5.10987Z" stroke="currentColor" stroke-width="2" stroke-linecap="round" stroke-linejoin="round"/>
</g>
</svg>
