<svg width="284" height="46" viewBox="0 0 284 46" fill="none" xmlns="http://www.w3.org/2000/svg">
<mask id="mask0_801_9702" style="mask-type:alpha" maskUnits="userSpaceOnUse" x="1" y="0" width="35" height="20">
<rect width="33.0504" height="18.0806" transform="matrix(0.998654 0.0518668 -0.0541891 0.998531 2.75781 0)" fill="#D9D9D9"/>
</mask>
<g mask="url(#mask0_801_9702)">
<path d="M31.148 22.3606C31.1469 22.3565 31.1479 22.3524 31.1469 22.3483C30.4952 19.9325 29.4048 17.7335 27.9766 15.9496C28.7411 14.6012 29.1854 13.0959 29.2687 11.5604C29.5726 5.96041 25.1633 1.16315 19.4389 0.865842C13.7146 0.568538 8.81077 4.8821 8.50687 10.4821C8.42354 12.0176 8.70238 13.5604 9.31661 14.9805C7.70344 16.6065 6.38113 18.6802 5.47163 21.0148C5.47012 21.0188 5.4707 21.023 5.46919 21.0269C4.6945 23.0176 4.24326 25.1042 4.128 27.228C4.11723 27.4264 4.12074 28.1111 4.12074 28.1111C4.06371 33.0029 5.73076 37.6271 8.69649 40.8003C8.85026 40.9641 9.0635 41.0631 9.28985 41.0748L25.1789 41.9001C25.4053 41.9118 25.628 41.8356 25.7986 41.6886C29.0912 38.8403 31.2494 34.4149 31.7221 29.5446C31.7221 29.5446 31.7997 28.8641 31.8104 28.6658C31.9258 26.5419 31.7028 24.4203 31.148 22.3606ZM15.4785 9.90125L15.6758 9.81716L15.8732 9.73315L16.4703 9.38694C16.4703 9.38694 16.6135 9.28846 16.6535 9.26176C17.7544 8.52697 18.6603 7.59023 19.2689 6.61895C19.7969 7.64981 20.5529 8.6556 21.4808 9.47707L21.5697 9.55753L21.9389 9.85959L22.217 10.0626L22.3646 10.1588C23.3836 10.8496 24.5483 11.3148 25.8085 11.3807C25.6059 15.1137 22.3372 17.9897 18.5205 17.7915C18.5319 17.7921 18.548 17.7949 18.5598 17.7956C18.5521 17.7952 18.5451 17.7942 18.5374 17.7938C18.5315 17.7935 18.5264 17.7918 18.5205 17.7915C18.5174 17.7913 18.5146 17.7919 18.5116 17.7917C18.5103 17.7917 18.5091 17.7915 18.5091 17.7915C18.5115 17.7917 18.5167 17.7913 18.5205 17.7915C14.7036 17.5933 11.7648 14.3949 11.9674 10.6618C13.2244 10.7269 15.4785 9.90125 15.4785 9.90125Z" fill="url(#paint0_linear_801_9702)"/>
</g>
<mask id="mask1_801_9702" style="mask-type:alpha" maskUnits="userSpaceOnUse" x="0" y="19" width="34" height="7">
<rect width="33.0524" height="5.56292" transform="matrix(0.999995 -0.00322819 0.0037357 0.999993 0 19.8643)" fill="#D9D9D9"/>
</mask>
<g mask="url(#mask1_801_9702)">
<path d="M29.5714 22.5417C29.5701 22.5377 29.5708 22.5336 29.5696 22.5295C28.7794 20.1536 27.5638 18.0183 26.0349 16.3162C26.7204 14.9277 27.077 13.4003 27.0715 11.8626C27.0516 6.25474 22.3723 1.70878 16.64 1.72826C10.9076 1.74773 6.26068 6.32538 6.28058 11.9332C6.28604 13.4709 6.65351 14.9958 7.34876 16.3797C5.83204 18.0922 4.63157 20.2357 3.85832 22.6169C3.85704 22.6209 3.85787 22.625 3.85658 22.6291C3.19806 24.6593 2.86801 26.7676 2.87556 28.8944C2.87627 29.093 2.9193 29.7765 2.9193 29.7765C3.14481 34.6636 5.07618 39.1882 8.22038 42.1926C8.38337 42.3476 8.60198 42.4346 8.82865 42.4339L24.74 42.3798C24.9667 42.3791 25.1846 42.2906 25.3465 42.1344C28.4693 39.1088 30.3686 34.5711 30.5593 29.6826C30.5593 29.6826 30.5975 28.9988 30.5968 28.8002C30.5893 26.6734 30.2442 24.5674 29.5714 22.5417ZM13.2075 10.9681L13.3997 10.8732L13.5919 10.7784L14.1681 10.3998C14.1681 10.3998 14.3054 10.2936 14.3438 10.2647C15.4005 9.47023 16.2509 8.48493 16.8024 7.48157C17.3891 8.48162 18.2019 9.44403 19.1757 10.2129L19.2692 10.2883L19.6552 10.5695L19.9446 10.7569L20.0975 10.8448C21.1547 11.4781 22.3444 11.8782 23.6064 11.8744C23.6197 15.6127 20.5223 18.6647 16.7002 18.6776C16.7117 18.6776 16.7279 18.6795 16.7398 18.6796C16.732 18.6796 16.725 18.679 16.7173 18.679C16.7113 18.679 16.7061 18.6776 16.7002 18.6776C16.6971 18.6777 16.6944 18.6784 16.6914 18.6784C16.6901 18.6784 16.6888 18.6783 16.6888 18.6783C16.6913 18.6783 16.6965 18.6777 16.7002 18.6776C12.878 18.6906 9.7592 15.6597 9.74593 11.9214C11.0048 11.9169 13.2075 10.9681 13.2075 10.9681Z" fill="url(#paint1_linear_801_9702)"/>
</g>
<mask id="mask2_801_9702" style="mask-type:alpha" maskUnits="userSpaceOnUse" x="3" y="25" width="35" height="9">
<rect width="33.0499" height="5.91108" transform="matrix(0.998254 0.0590728 -0.0617155 0.998094 4.07617 25.5586)" fill="#D9D9D9"/>
</mask>
<g mask="url(#mask2_801_9702)">
<path d="M33.7552 24.5243C33.7542 24.5202 33.7552 24.5161 33.7542 24.512C33.1207 22.0916 32.0469 19.8847 30.6323 18.0906C31.4069 16.7477 31.8625 15.2457 31.9574 13.7108C32.3035 8.11319 27.9305 3.28424 22.2085 2.94564C16.4866 2.60704 11.5504 6.8851 11.2043 12.4827C11.1093 14.0176 11.3765 15.5624 11.9801 16.9868C10.3547 18.6012 9.01676 20.6653 8.08969 22.9933C8.08814 22.9973 8.08869 23.0014 8.08715 23.0054C7.29747 24.9904 6.83051 27.0737 6.69924 29.1966C6.68698 29.3949 6.68532 30.0796 6.68532 30.0796C6.59141 34.9709 8.22355 39.6069 11.1653 42.8015C11.3178 42.9664 11.5303 43.0669 11.7565 43.0803L27.6389 44.0202C27.8653 44.0336 28.0885 43.9589 28.2603 43.8131C31.5742 40.9887 33.7657 36.579 34.2751 31.7123C34.2751 31.7123 34.3578 31.0323 34.3701 30.8341C34.5014 28.7111 34.2945 26.5879 33.7552 24.5243ZM18.18 11.9522L18.378 11.8696L18.576 11.787L19.1757 11.4451C19.1757 11.4451 19.3197 11.3476 19.3599 11.3212C20.4663 10.5944 21.3793 9.66422 21.9952 8.69736C22.5154 9.73201 23.2637 10.7432 24.1854 11.5714L24.2737 11.6525L24.6406 11.9572L24.9172 12.1622L25.064 12.2595C26.0778 12.9576 27.2389 13.4311 28.4986 13.5062C28.2679 17.2377 24.9776 20.09 21.1625 19.8642C21.1739 19.8649 21.19 19.8678 21.2018 19.8686C21.1941 19.8681 21.1871 19.8671 21.1794 19.8666C21.1735 19.8663 21.1684 19.8646 21.1625 19.8642C21.1594 19.864 21.1566 19.8646 21.1536 19.8644C21.1523 19.8643 21.1511 19.8642 21.1511 19.8642C21.1535 19.8643 21.1587 19.864 21.1625 19.8642C17.3472 19.6384 14.4326 16.4189 14.6633 12.6874C15.9199 12.7616 18.18 11.9522 18.18 11.9522Z" fill="url(#paint2_linear_801_9702)"/>
</g>
<mask id="mask3_801_9702" style="mask-type:alpha" maskUnits="userSpaceOnUse" x="1" y="33" width="34" height="8">
<rect width="33.0508" height="5.5632" transform="matrix(0.998898 -0.0469371 0.0490398 0.998797 1.39453 34.833)" fill="#D9D9D9"/>
</mask>
<g mask="url(#mask3_801_9702)">
<path d="M30.4955 24.7599C30.494 24.7559 30.4945 24.7517 30.4931 24.7477C29.5957 22.4086 28.2841 20.3283 26.6793 18.6945C27.3009 17.2775 27.5877 15.7361 27.5123 14.2002C27.2372 8.59873 22.3557 4.26102 16.6299 4.53007C10.9041 4.79912 6.47009 9.57456 6.74512 15.176C6.82053 16.7119 7.25701 18.2193 8.01453 19.5715C6.57723 21.3484 5.47547 23.542 4.81132 25.9545C4.81022 25.9586 4.81124 25.9627 4.81014 25.9668C4.24464 28.0237 4.01084 30.1442 4.11514 32.2686C4.12488 32.467 4.19897 33.1479 4.19897 33.1479C4.6466 38.0204 6.78191 42.4564 10.0597 45.3209C10.2296 45.4687 10.4519 45.5461 10.6783 45.5355L26.5714 44.7887C26.7979 44.778 27.0116 44.6802 27.1662 44.5171C30.1483 41.3585 31.8392 36.7426 31.8073 31.8506C31.8073 31.8506 31.8144 31.1659 31.8046 30.9675C31.7004 28.8431 31.2598 26.7543 30.4955 24.7599ZM13.6213 13.9102L13.8089 13.8071L13.9966 13.704L14.555 13.3006C14.555 13.3006 14.6873 13.1885 14.7244 13.158C15.7439 12.3183 16.5486 11.297 17.054 10.2706C17.6856 11.2441 18.5414 12.1702 19.5492 12.8959L19.646 12.9672L20.0445 13.2313L20.3421 13.4058L20.4988 13.487C21.5838 14.0737 22.7905 14.4215 24.0511 14.3628C24.2345 18.0968 21.279 21.2806 17.4613 21.46C17.4727 21.4595 17.489 21.4607 17.5009 21.4602C17.4932 21.4606 17.4861 21.4603 17.4784 21.4607C17.4724 21.4609 17.4672 21.4598 17.4613 21.46C17.4582 21.4602 17.4555 21.461 17.4525 21.4612C17.4512 21.4612 17.4499 21.4612 17.4499 21.4612C17.4524 21.4611 17.4575 21.4602 17.4613 21.46C13.6434 21.6394 10.3898 18.7473 10.2065 15.0133C11.4639 14.954 13.6213 13.9102 13.6213 13.9102Z" fill="url(#paint3_linear_801_9702)"/>
</g>
<mask id="mask4_801_9702" style="mask-type:alpha" maskUnits="userSpaceOnUse" x="2" y="40" width="34" height="7">
<rect x="2.08594" y="40.4375" width="33.0524" height="5.56292" fill="#D9D9D9"/>
</mask>
<g mask="url(#mask4_801_9702)">
<path d="M31.6479 26.1785C31.6466 26.1745 31.6474 26.1703 31.6461 26.1663C30.8644 23.7877 29.6564 21.6483 28.1336 19.941C28.8239 18.5548 29.186 17.0286 29.186 15.491C29.186 9.88308 24.5228 5.32125 18.7904 5.32125C13.058 5.32125 8.39489 9.88308 8.39489 15.491C8.39489 17.0286 8.75695 18.5548 9.44728 19.941C7.9245 21.6484 6.71642 23.7878 5.93472 26.1663C5.93343 26.1703 5.93424 26.1745 5.93294 26.1785C5.26722 28.2065 4.92969 30.3136 4.92969 32.4404C4.92969 32.6391 4.9703 33.3227 4.9703 33.3227C5.17845 38.2106 7.09375 42.7417 10.2273 45.7567C10.3897 45.9123 10.608 46.0001 10.8347 46.0001H26.7461C26.9729 46.0001 27.1911 45.9124 27.3535 45.7567C30.487 42.7417 32.4024 38.2106 32.6105 33.3227C32.6105 33.3227 32.6511 32.6391 32.6511 32.4404C32.6512 30.3136 32.3136 28.2065 31.6479 26.1785ZM15.3252 14.5493L15.5177 14.4551L15.7102 14.361L16.2878 13.9843C16.2878 13.9843 16.4254 13.8786 16.4639 13.8498C17.5235 13.059 18.3774 12.0766 18.9325 11.0751C19.5156 12.0771 20.325 13.0423 21.2961 13.8145L21.3893 13.8902L21.7743 14.1727L22.0631 14.361L22.2156 14.4494C23.2706 15.0864 24.4588 15.4905 25.7208 15.491C25.7208 19.2293 22.6127 22.2707 18.7905 22.2707C18.802 22.2707 18.8182 22.2727 18.8301 22.2728C18.8224 22.2728 18.8153 22.2722 18.8076 22.2722C18.8016 22.2722 18.7964 22.2707 18.7905 22.2707C18.7874 22.2707 18.7847 22.2714 18.7817 22.2714C18.7804 22.2714 18.7791 22.2714 18.7791 22.2714C18.7816 22.2714 18.7868 22.2707 18.7905 22.2707C14.9683 22.2707 11.8603 19.2293 11.8603 15.491C13.1191 15.4907 15.3252 14.5493 15.3252 14.5493Z" fill="url(#paint4_linear_801_9702)"/>
</g>
<path d="M66.0665 34.1661H62.645L58.1482 21.5036L57.6268 36.8978H53.293L54.5638 15.4295H59.6471L64.3395 29.2489L69.0644 15.4295H74.1477L75.4185 36.8978H71.0521L70.5307 21.5358L66.0665 34.1661Z" fill="#21252D"/>
<path d="M95.507 36.8978H90.8798L89.3483 31.82H83.0593L81.5604 36.8978H76.8029L83.711 15.4295H88.6966L95.507 36.8978ZM88.3382 28.3169L86.1875 19.8646L84.0695 28.3169H88.3382Z" fill="#21252D"/>
<path d="M100.081 19.1254H94.411V15.4295H110.541V19.1254H104.773V36.8978H100.081V19.1254Z" fill="#21252D"/>
<path d="M118.448 29.0561H117.633V36.8978H112.941V15.4295H119.23C120.881 15.4295 122.195 15.5688 123.173 15.8473C124.172 16.1258 125.052 16.6079 125.812 17.2935C127.137 18.4505 127.8 20.036 127.8 22.05C127.8 24.5139 127.061 26.2922 125.584 27.3849C125.084 27.7706 124.498 28.092 123.824 28.3491L129.396 35.8373L125.877 37.9584L119.425 29.024C119.23 29.0454 118.904 29.0561 118.448 29.0561ZM122.13 24.9746C122.89 24.4603 123.27 23.6033 123.27 22.4035C123.27 21.1823 122.955 20.2824 122.325 19.7039C121.717 19.1254 120.435 18.8362 118.48 18.8362H117.633V25.6495H117.991C120.142 25.6495 121.522 25.4245 122.13 24.9746Z" fill="#21252D"/>
<path d="M136.567 33.1698H145.886V36.8978H131.875V15.3974H145.593V19.1254H136.567V23.9783H145.072V27.5777H136.567V33.1698Z" fill="#21252D"/>
<path d="M162.481 30.888C162.481 32.7948 161.807 34.3482 160.46 35.548C159.135 36.7264 157.343 37.3156 155.084 37.3156C153.998 37.3156 152.77 37.1764 151.402 36.8978C150.055 36.5979 148.936 36.2443 148.045 35.8373L149.251 32.0128C151.249 32.9127 153.139 33.3626 154.921 33.3626C156.941 33.3626 157.951 32.5913 157.951 31.0487C157.951 30.2988 157.615 29.656 156.941 29.1204C156.268 28.5847 155.355 28.0598 154.204 27.5456C153.053 27.01 152.227 26.6029 151.727 26.3244C151.249 26.0458 150.717 25.6495 150.131 25.1352C149.023 24.1711 148.469 22.7677 148.469 20.9251C148.469 19.0826 149.121 17.6363 150.424 16.5865C151.749 15.5366 153.378 15.0117 155.312 15.0117C157.267 15.0117 159.363 15.4188 161.601 16.233L160.297 19.736C158.516 19.1147 156.995 18.804 155.735 18.804C153.932 18.804 153.02 19.5111 152.998 20.9251C152.998 21.5036 153.194 21.9429 153.585 22.2428C153.976 22.5213 154.258 22.7249 154.432 22.8534C154.606 22.9606 154.953 23.1534 155.475 23.4319C156.018 23.689 156.517 23.9461 156.974 24.2032C157.43 24.4389 157.843 24.6746 158.212 24.9103C158.603 25.1245 159.113 25.4673 159.743 25.9387C160.373 26.4101 160.851 26.8493 161.177 27.2564C162.046 28.3276 162.481 29.5382 162.481 30.888Z" fill="#21252D"/>
<path d="M177.243 23.914V15.4295H181.902V36.8978H177.243V27.642H170.106V36.8978H165.447V15.4295H170.106V23.914H177.243Z" fill="#21252D"/>
<path d="M190.759 33.1698H200.079V36.8978H186.067V15.3974H199.786V19.1254H190.759V23.9783H199.264V27.5777H190.759V33.1698Z" fill="#21252D"/>
<path d="M208.947 25.9387L215.268 15.4295H220.808L214.062 25.778L222.241 36.8978H216.539L208.947 25.9387ZM208.23 15.4295V36.8978H203.537V15.4295H208.23Z" fill="#21252D"/>
<path d="M248.002 36.8978H243.049L234.479 21.8893V36.8978H229.949V15.4295H234.902L243.44 30.4702V15.4295H248.002V36.8978Z" fill="#F94444"/>
<path d="M256.853 33.1698H266.173V36.8978H252.161V15.3974H265.88V19.1254H256.853V23.9783H265.358V27.5777H256.853V33.1698Z" fill="#F94444"/>
<path d="M273.541 19.1254H267.872V15.4295H284.001V19.1254H278.234V36.8978H273.541V19.1254Z" fill="#F94444"/>
<defs>
<linearGradient id="paint0_linear_801_9702" x1="19.7024" y1="0.140646" x2="18.93" y2="15.753" gradientUnits="userSpaceOnUse">
<stop stop-color="#FA3E3E"/>
<stop offset="1" stop-color="#F95050"/>
</linearGradient>
<linearGradient id="paint1_linear_801_9702" x1="16.6399" y1="1.7283" x2="16.7781" y2="42.4069" gradientUnits="userSpaceOnUse">
<stop stop-color="#F95050"/>
<stop offset="1" stop-color="#F16868"/>
</linearGradient>
<linearGradient id="paint2_linear_801_9702" x1="22.2085" y1="2.94568" x2="19.8053" y2="43.5567" gradientUnits="userSpaceOnUse">
<stop stop-color="#F16868"/>
<stop offset="1" stop-color="#F07D7D"/>
</linearGradient>
<linearGradient id="paint3_linear_801_9702" x1="16.6299" y1="4.53012" x2="18.5393" y2="45.1661" gradientUnits="userSpaceOnUse">
<stop stop-color="#F07D7D"/>
<stop offset="1" stop-color="#FD9191"/>
</linearGradient>
<linearGradient id="paint4_linear_801_9702" x1="18.7904" y1="5.32129" x2="18.7904" y2="46.0001" gradientUnits="userSpaceOnUse">
<stop stop-color="#FD9191"/>
<stop offset="1" stop-color="#FFAAAA"/>
</linearGradient>
</defs>
</svg>
