<svg width="30" height="40" viewBox="0 0 30 40" fill="none" xmlns="http://www.w3.org/2000/svg">
<g id="Group">
<path id="Vector" d="M12.209 24.7886V26.8091C12.209 28.3505 13.4585 29.6001 14.9999 29.6001C16.5413 29.6001 17.7909 28.3505 17.7909 26.8091V24.7886" stroke="currentColor" stroke-width="1.5" stroke-miterlimit="10" stroke-linecap="round" stroke-linejoin="round"/>
<path id="Vector_2" d="M25.6741 32.9565C23.4749 36.7712 19.3794 39.1408 14.9856 39.1408C10.6141 39.1408 6.52898 36.789 4.32422 33.0032" stroke="currentColor" stroke-width="1.5" stroke-miterlimit="10" stroke-linecap="round" stroke-linejoin="round"/>
<path id="Vector_3" d="M21.548 30.5737C20.2409 32.8409 17.7919 34.3703 14.9923 34.3703C12.2045 34.3703 9.76422 32.8538 8.45312 30.6023" stroke="currentColor" stroke-width="1.5" stroke-miterlimit="10" stroke-linecap="round" stroke-linejoin="round"/>
<path id="Vector_4" d="M26.3872 22.4043V15.4463C26.3872 10.1202 22.7305 5.64883 17.7909 4.40414V3.65039C17.7909 2.10891 16.5414 0.859375 15 0.859375C13.4586 0.859375 12.2091 2.10891 12.2091 3.65031V4.40406C7.26945 5.64867 3.61281 10.1202 3.61281 15.4462V22.4042C3.61281 23.721 2.54531 24.7885 1.22852 24.7885H28.7715C27.4547 24.7886 26.3872 23.7211 26.3872 22.4043Z" stroke="currentColor" stroke-width="1.5" stroke-miterlimit="10" stroke-linecap="round" stroke-linejoin="round"/>
</g>
</svg>
