<svg width="40" height="42" viewBox="0 0 40 42" fill="none" xmlns="http://www.w3.org/2000/svg">
<g id="Group">
<g id="Group_2">
<path id="Vector" d="M34.2965 31.9473H4.06836" stroke="currentColor" stroke-width="1.5" stroke-miterlimit="10" stroke-linecap="round" stroke-linejoin="round"/>
<path id="Vector_2" d="M7.33594 22.9608V18.876" stroke="currentColor" stroke-width="1.5" stroke-miterlimit="10" stroke-linecap="round" stroke-linejoin="round"/>
<path id="Vector_3" d="M10.6055 19.0791V22.7789" stroke="currentColor" stroke-width="1.5" stroke-miterlimit="10" stroke-linecap="round" stroke-linejoin="round"/>
<path id="Vector_4" d="M21.6334 26.2285C21.6334 27.5821 20.5361 28.6794 19.1825 28.6794C17.8289 28.6794 16.7315 27.5821 16.7315 26.2285H4.06836V35.2153C4.06836 36.5689 5.16569 37.6662 6.51929 37.6662H31.8456C33.1992 37.6662 34.2965 36.5689 34.2965 35.2153V26.2285H21.6334Z" stroke="currentColor" stroke-width="1.5" stroke-miterlimit="10" stroke-linecap="round" stroke-linejoin="round"/>
<path id="Vector_5" d="M28.5776 37.8814V41.0978H9.78711V37.6665" stroke="currentColor" stroke-width="1.5" stroke-miterlimit="10" stroke-linecap="round" stroke-linejoin="round"/>
<path id="Vector_6" d="M31.029 18.876H0.800781V22.9609H31.029V18.876Z" stroke="currentColor" stroke-width="1.5" stroke-miterlimit="10" stroke-linecap="round" stroke-linejoin="round"/>
<path id="Vector_7" d="M23.6769 12.34H27.2198C27.1347 12.0016 27.089 11.6475 27.089 11.2827C27.089 9.76287 27.8736 8.42715 29.0591 7.65573C28.9036 7.16239 28.8192 6.63739 28.8192 6.09254C28.8192 3.22613 31.1429 0.902344 34.0094 0.902344C36.8758 0.902344 39.1996 3.22613 39.1996 6.09254C39.1996 8.35628 37.7497 10.2804 35.7284 10.99C35.7349 11.0869 35.7393 11.1843 35.7393 11.2827C35.7393 13.6714 33.8029 15.6079 31.4142 15.6079H23.6769C22.7745 15.6079 22.043 14.8764 22.043 13.9739C22.043 13.0716 22.7745 12.34 23.6769 12.34Z" stroke="currentColor" stroke-width="1.5" stroke-miterlimit="10" stroke-linecap="round" stroke-linejoin="round"/>
</g>
</g>
</svg>
