<svg width="34" height="38" viewBox="0 0 34 38" fill="none" xmlns="http://www.w3.org/2000/svg">
<g id="Group">
<g id="Group_2">
<path id="Vector" d="M33.1034 14.984V29.9367C33.1034 33.9391 29.8588 37.1837 25.8564 37.1837C21.854 37.1837 18.6094 33.9391 18.6094 29.9367V14.984C18.6094 12.4868 20.6338 10.4624 23.131 10.4624H28.5818C31.079 10.4624 33.1034 12.4869 33.1034 14.984Z" stroke="currentColor" stroke-width="1.5" stroke-miterlimit="10" stroke-linecap="round" stroke-linejoin="round"/>
<path id="Vector_2" d="M28.4665 17.9692C28.6388 16.5695 27.6439 15.2952 26.2443 15.1229C24.8446 14.9506 23.5703 15.9455 23.398 17.3451C23.2256 18.7448 24.2206 20.0191 25.6202 20.1914C27.0198 20.3638 28.2942 19.3688 28.4665 17.9692Z" stroke="currentColor" stroke-width="1.5" stroke-miterlimit="10" stroke-linecap="round" stroke-linejoin="round"/>
<path id="Vector_3" d="M25.9289 16.6056V3.40582C25.9289 1.9757 24.7696 0.816406 23.3394 0.816406H9.99098C8.83962 0.816406 7.90625 1.74978 7.90625 2.90114V4.74725" stroke="currentColor" stroke-width="1.5" stroke-miterlimit="10" stroke-linecap="round" stroke-linejoin="round"/>
<g id="Group_3">
<path id="Vector_4" d="M0.894531 11.7599C0.894531 14.7686 2.78934 17.3342 5.45052 18.3298V34.5846L7.8918 37.173L10.3639 34.5846V18.3298C13.0251 17.3342 14.9199 14.7686 14.9199 11.7599C14.9199 7.88699 11.7802 4.74731 7.90716 4.74731C4.03421 4.74731 0.894531 7.88699 0.894531 11.7599Z" stroke="currentColor" stroke-width="1.5" stroke-miterlimit="10" stroke-linecap="round" stroke-linejoin="round"/>
<path id="Vector_5" d="M10.4062 32.2815H12.6135" stroke="currentColor" stroke-width="1.5" stroke-miterlimit="10" stroke-linecap="round" stroke-linejoin="round"/>
<path id="Vector_6" d="M10.4062 27.8181H12.6135" stroke="currentColor" stroke-width="1.5" stroke-miterlimit="10" stroke-linecap="round" stroke-linejoin="round"/>
<path id="Vector_7" d="M10.4062 23.3547H12.6135" stroke="currentColor" stroke-width="1.5" stroke-miterlimit="10" stroke-linecap="round" stroke-linejoin="round"/>
</g>
<g id="Group_4">
<path id="Vector_8" d="M25.8555 29.9363V24.7046" stroke="currentColor" stroke-width="1.5" stroke-miterlimit="10"/>
<path id="Vector_9" d="M33.1034 24.7046H18.6094V29.9364H33.1034V24.7046Z" stroke="currentColor" stroke-width="1.5" stroke-miterlimit="10" stroke-linecap="round" stroke-linejoin="round"/>
</g>
</g>
<path id="Vector_10" d="M7.96875 9.45314V9.4209" stroke="currentColor" stroke-width="1.5" stroke-miterlimit="10" stroke-linecap="round" stroke-linejoin="round"/>
</g>
</svg>
