<svg width="41" height="41" viewBox="0 0 41 41" fill="none" xmlns="http://www.w3.org/2000/svg">
<g id="Group">
<path id="Vector" d="M20.5 40.1191C31.3354 40.1191 40.1191 31.3354 40.1191 20.5C40.1191 9.66465 31.3354 0.880859 20.5 0.880859C9.66465 0.880859 0.880859 9.66465 0.880859 20.5C0.880859 31.3354 9.66465 40.1191 20.5 40.1191Z" stroke="currentColor" stroke-width="1.5" stroke-miterlimit="10" stroke-linecap="round" stroke-linejoin="round"/>
<g id="Group_2">
<g id="Group_3">
<path id="Vector_2" d="M13.168 21.5251V29.7152C17.3649 29.7152 21.5618 34.5752 21.5618 34.5752V27.3564" stroke="currentColor" stroke-width="1.5" stroke-miterlimit="10" stroke-linecap="round" stroke-linejoin="round"/>
<path id="Vector_3" d="M20.7811 27.1506L24.7974 28.2057C26.3202 28.6057 27.8419 27.5558 28.0084 25.9901L28.352 22.1185H29.7801C30.3075 22.1185 30.6957 21.6247 30.5711 21.1122L29.1762 15.3741C29.1762 10.3892 25.1004 6.35627 20.0995 6.42594C15.2186 6.49392 11.1152 10.5237 11.1152 15.405C11.1152 18.2205 12.0944 20.0536 13.1694 21.5248" stroke="currentColor" stroke-width="1.5" stroke-miterlimit="10" stroke-linecap="round" stroke-linejoin="round"/>
<path id="Vector_4" d="M13.168 21.5247C14.6387 20.4962 13.9508 19.0821 15.4215 18.0536C16.8922 17.025 17.5154 17.916 18.9861 16.8875C20.4566 15.859 19.8335 14.9681 21.304 13.9396C22.7745 12.9112 23.3977 13.8022 24.8683 12.7738C26.3387 11.7454 25.7156 10.8544 27.1861 9.82594L27.2246 9.79663" stroke="currentColor" stroke-width="1.5" stroke-miterlimit="10" stroke-linejoin="round"/>
</g>
</g>
<g id="Group_4">
<path id="Vector_5" d="M6.99065 13.8362C5.99768 15.8451 5.43945 18.1073 5.43945 20.5C5.43945 23.9448 6.5965 27.1189 8.54264 29.6562" stroke="currentColor" stroke-width="1.5" stroke-miterlimit="10" stroke-linecap="round" stroke-linejoin="round"/>
<path id="Vector_6" d="M26.5547 34.2927C31.8573 31.9618 35.5604 26.6637 35.5604 20.5C35.5604 17.523 34.6961 14.7482 33.2055 12.4119" stroke="currentColor" stroke-width="1.5" stroke-miterlimit="10" stroke-linecap="round" stroke-linejoin="round"/>
</g>
</g>
</svg>
