<svg width="41" height="33" viewBox="0 0 41 33" fill="none" xmlns="http://www.w3.org/2000/svg">
<g id="Group">
<path id="Vector" d="M4.21883 26.8308H10.7314V30.246C10.7314 31.189 10.0025 31.9535 9.10328 31.9535H5.8469C4.9477 31.9535 4.21875 31.189 4.21875 30.246L4.21883 26.8308Z" stroke="currentColor" stroke-width="1.5" stroke-miterlimit="10" stroke-linecap="round" stroke-linejoin="round"/>
<path id="Vector_2" d="M36.7821 26.8308H30.2695V30.246C30.2695 31.189 30.9985 31.9535 31.8977 31.9535H35.154C36.0532 31.9535 36.7821 31.189 36.7821 30.246V26.8308Z" stroke="currentColor" stroke-width="1.5" stroke-miterlimit="10" stroke-linecap="round" stroke-linejoin="round"/>
<path id="Vector_3" d="M36.0488 12.9996C38.2968 12.9996 40.1191 14.9108 40.1191 17.2685V26.8309H0.880859V17.2684C0.880859 14.9107 2.7032 12.9995 4.95123 12.9995" stroke="currentColor" stroke-width="1.5" stroke-miterlimit="10" stroke-linecap="round" stroke-linejoin="round"/>
<path id="Vector_4" d="M15.6159 26.8311H25.3848V20.6838H15.6159V26.8311Z" stroke="currentColor" stroke-width="1.5" stroke-miterlimit="10" stroke-linecap="round" stroke-linejoin="round"/>
<path id="Vector_5" d="M31.0833 12.9999C31.0833 10.1707 28.8965 7.8772 26.1989 7.8772C23.5013 7.8772 21.3145 10.1707 21.3145 12.9999" stroke="currentColor" stroke-width="1.5" stroke-miterlimit="10" stroke-linejoin="round"/>
<path id="Vector_6" d="M35.0506 20.6574C35.4415 19.3034 34.7119 17.8736 33.4209 17.4636C32.13 17.0537 30.7666 17.8189 30.3757 19.1728C29.9848 20.5267 30.7145 21.9566 32.0054 22.3665C33.2964 22.7765 34.6597 22.0113 35.0506 20.6574Z" stroke="currentColor" stroke-width="1.5" stroke-miterlimit="10" stroke-linecap="round" stroke-linejoin="round"/>
<path id="Vector_7" d="M10.545 20.8955C11.0612 19.5886 10.4695 18.0902 9.2233 17.5489C7.97715 17.0075 6.54848 17.6281 6.03229 18.9351C5.51611 20.242 6.10787 21.7404 7.35403 22.2817C8.60019 22.8231 10.0288 22.2025 10.545 20.8955Z" stroke="currentColor" stroke-width="1.5" stroke-miterlimit="10" stroke-linecap="round" stroke-linejoin="round"/>
<path id="Vector_8" d="M11.3577 1.04663H29.6393C31.4567 1.04663 33.0538 2.31018 33.5531 4.1428L35.9659 12.9996H5.03125L7.44408 4.1428C7.94329 2.31009 9.54045 1.04663 11.3577 1.04663Z" stroke="currentColor" stroke-width="1.5" stroke-miterlimit="10" stroke-linecap="round" stroke-linejoin="round"/>
</g>
</svg>
