<svg width="38" height="42" viewBox="0 0 38 42" fill="none" xmlns="http://www.w3.org/2000/svg">
<g id="Group">
<g id="Group_2">
<path id="Vector" d="M24.4723 8.95242C25.8411 9.84853 27.0338 10.989 27.9856 12.3095M30.2322 22.1779C29.9382 23.8014 29.3388 25.3236 28.4956 26.6838C25.7674 31.0847 25.1753 36.0286 25.5075 41.0977C21.6025 41.0977 17.6975 41.0977 13.7925 41.0977C13.5047 36.7055 13.0702 36.383 8.39822 36.383C6.41422 36.383 4.79098 34.7776 4.79098 32.8153V28.4526C1.24026 28.4526 0.112739 26.8605 1.79036 24.5229C2.60272 23.3911 3.96386 21.2853 3.96386 19.8771C3.96386 14.4231 7.38136 9.72072 12.2028 7.76001" stroke="currentColor" stroke-width="1.5" stroke-miterlimit="22.9256" stroke-linecap="round" stroke-linejoin="round"/>
<path id="Vector_2" d="M7.44531 21.7471H7.44598" stroke="currentColor" stroke-width="1.5" stroke-miterlimit="22.9256" stroke-linecap="round" stroke-linejoin="round"/>
<path id="Vector_3" d="M8.05991 31.7204C7.32089 31.2936 6.42601 30.9033 5.60898 30.9033H5.07422" stroke="currentColor" stroke-width="1.5" stroke-miterlimit="22.9256" stroke-linecap="round" stroke-linejoin="round"/>
<path id="Vector_4" fill-rule="evenodd" clip-rule="evenodd" d="M36.9732 12.3346H33.7054V11.5177C33.7054 10.619 32.9701 9.88379 32.0714 9.88379C31.1727 9.88379 30.4375 10.619 30.4375 11.5177V12.3346H27.1696V15.6025H26.3526C25.454 15.6025 24.7188 16.3378 24.7188 17.2364C24.7188 18.1351 25.4541 18.8704 26.3526 18.8704H27.1696V22.1383H35.3393C36.238 22.1383 36.9732 21.403 36.9732 20.5044V18.8704H36.1563C35.2576 18.8704 34.5223 18.1351 34.5223 17.2364C34.5223 16.3378 35.2576 15.6025 36.1563 15.6025H36.9732V12.3346Z" stroke="currentColor" stroke-width="1.5" stroke-miterlimit="22.9256" stroke-linecap="round" stroke-linejoin="round"/>
<path id="Vector_5" fill-rule="evenodd" clip-rule="evenodd" d="M22.1044 13.1569V9.88903H22.9214C23.8201 9.88903 24.5553 9.15378 24.5553 8.25505C24.5553 7.3564 23.82 6.62107 22.9214 6.62107H22.1044V3.35327H18.8365V2.53632C18.8365 1.63767 18.1013 0.902344 17.2026 0.902344C16.3039 0.902344 15.5687 1.63767 15.5687 2.53632V3.35327H12.3008V11.523C12.3008 12.4217 13.036 13.1569 13.9347 13.1569H15.5687V12.34C15.5687 11.4412 16.3039 10.7061 17.2026 10.7061C18.1012 10.7061 18.8365 11.4413 18.8365 12.34V13.1569H22.1044Z" stroke="currentColor" stroke-width="1.5" stroke-miterlimit="22.9256" stroke-linecap="round" stroke-linejoin="round"/>
</g>
</g>
</svg>
