<svg width="42" height="42" viewBox="0 0 42 42" fill="none" xmlns="http://www.w3.org/2000/svg">
<g id="Group">
<g id="Outline_00000094605340188516139440000004048747736111942802_">
<g id="Group_2">
<path id="Vector" d="M9.30166 41.9954V25.4938C7.70664 24.8706 6.57617 23.32 6.57617 21.5042V17.5014C6.57617 15.136 8.49365 13.2185 10.859 13.2185C13.2244 13.2185 15.1419 15.136 15.1419 17.5014V21.5042C15.1419 23.3199 14.0114 24.8706 12.4164 25.4937V41.9953" stroke="currentColor" stroke-width="1.5" stroke-miterlimit="10"/>
<path id="Vector_2" d="M10.8589 15.5547C9.78541 15.5547 8.91211 16.428 8.91211 17.5015V21.5043" stroke="currentColor" stroke-width="1.5" stroke-miterlimit="10" stroke-linecap="round"/>
</g>
<path id="Vector_3" d="M33.5371 41.9949V13.2102C30.8188 13.2102 28.6152 15.4138 28.6152 18.1321V32.9938L30.4216 34.5516V41.9949" stroke="currentColor" stroke-width="1.5" stroke-miterlimit="10"/>
<g id="Group_3">
<path id="Vector_4" d="M20.3446 41.9955V25.494C18.7496 24.8708 17.6191 23.3201 17.6191 21.5044V12.7515" stroke="currentColor" stroke-width="1.5" stroke-miterlimit="10" stroke-linecap="round"/>
<path id="Vector_5" d="M26.9345 12.7515C26.9345 12.3373 26.5987 12.0015 26.1845 12.0015C25.7703 12.0015 25.4345 12.3373 25.4345 12.7515H26.9345ZM23.459 25.494L23.1861 24.7954L22.709 24.9817V25.494H23.459ZM25.4345 12.7515V21.5044H26.9345V12.7515H25.4345ZM25.4345 21.5044C25.4345 23.0006 24.5034 24.2807 23.1861 24.7954L23.7319 26.1925C25.6046 25.461 26.9345 23.6397 26.9345 21.5044H25.4345ZM22.709 25.494V41.9955H24.209V25.494H22.709Z" fill="#28313D"/>
<path id="Vector_6" d="M26.1848 18.7524H17.6191" stroke="currentColor" stroke-width="1.5" stroke-miterlimit="10"/>
<path id="Vector_7" d="M20.4746 12.7515V18.7525" stroke="currentColor" stroke-width="1.5" stroke-miterlimit="10" stroke-linecap="round"/>
<path id="Vector_8" d="M23.3301 12.7515V18.7525" stroke="currentColor" stroke-width="1.5" stroke-miterlimit="10" stroke-linecap="round"/>
</g>
<path id="Vector_9" d="M23.4609 41.2416C25.9473 40.943 28.295 40.1965 30.4229 39.085" stroke="currentColor" stroke-width="1.5" stroke-miterlimit="10"/>
<path id="Vector_10" d="M9.3007 37.6996C4.04824 34.0123 0.615234 27.9092 0.615234 21.0046C0.615234 9.74667 9.74203 0.619873 21 0.619873C32.258 0.619873 41.3848 9.74667 41.3848 21.0046C41.3848 27.5351 38.3143 33.3479 33.5377 37.0787" stroke="currentColor" stroke-width="1.5" stroke-miterlimit="10"/>
<path id="Vector_11" d="M12.4141 39.498C14.8364 40.6243 17.5172 41.2896 20.3432 41.3782" stroke="currentColor" stroke-width="1.5" stroke-miterlimit="10"/>
<path id="Vector_12" d="M23.4609 38.7617C25.9457 38.4229 28.3082 37.5714 30.4229 36.2598" stroke="currentColor" stroke-width="1.5" stroke-miterlimit="10"/>
<path id="Vector_13" d="M33.6738 8.33081C37.0593 11.7162 38.9238 16.2173 38.9238 21.0046" stroke="currentColor" stroke-width="1.5" stroke-miterlimit="10" stroke-linecap="round"/>
<path id="Vector_14" d="M8.32617 8.33081C11.7116 4.94538 16.2127 3.08081 21 3.08081" stroke="currentColor" stroke-width="1.5" stroke-miterlimit="10" stroke-linecap="round"/>
<path id="Vector_15" d="M9.3007 34.5849C8.96684 34.2962 8.64117 33.9935 8.32617 33.6785C4.94074 30.293 3.07617 25.792 3.07617 21.0046" stroke="currentColor" stroke-width="1.5" stroke-miterlimit="10" stroke-linecap="round"/>
</g>
</g>
</svg>
