<svg width="36" height="36" viewBox="0 0 36 36" fill="none" xmlns="http://www.w3.org/2000/svg">
<g id="Group">
<path id="Vector" d="M35.2266 28.6504L24.4332 31.5096H11.5668L0.773438 28.6504V25.7913H35.2266V28.6504Z" stroke="currentColor" stroke-width="1.5" stroke-miterlimit="10" stroke-linecap="round" stroke-linejoin="round"/>
<path id="Vector_2" d="M8.70703 35.2267L11.5662 31.5098H24.4326L27.2917 35.2267" stroke="currentColor" stroke-width="1.5" stroke-miterlimit="10" stroke-linecap="round" stroke-linejoin="round"/>
<path id="Vector_3" d="M18 25.7912V18.3789" stroke="currentColor" stroke-width="1.5" stroke-miterlimit="10" stroke-linecap="round" stroke-linejoin="round"/>
<path id="Vector_4" d="M11.5281 25.7914L8.93945 18.6792" stroke="currentColor" stroke-width="1.5" stroke-miterlimit="10" stroke-linecap="round" stroke-linejoin="round"/>
<path id="Vector_5" d="M24.4727 25.7915L26.9954 18.8604" stroke="currentColor" stroke-width="1.5" stroke-miterlimit="10" stroke-linecap="round" stroke-linejoin="round"/>
<path id="Vector_6" d="M17.9999 17.9285C16.8155 17.9285 15.8555 16.9684 15.8555 15.7841V2.91783C15.8555 1.73348 16.8155 0.773438 17.9999 0.773438C19.1842 0.773438 20.1442 1.73348 20.1442 2.91783V15.7842C20.1442 16.9684 19.1842 17.9285 17.9999 17.9285Z" stroke="currentColor" stroke-width="1.5" stroke-miterlimit="10" stroke-linecap="round" stroke-linejoin="round"/>
<path id="Vector_7" d="M8.83948 18.4027C7.72657 18.8078 6.49604 18.234 6.09097 17.1211L1.69046 5.03077C1.28539 3.91786 1.85921 2.68732 2.97211 2.28225C4.08502 1.87718 5.31556 2.451 5.72063 3.56391L10.1212 15.6543C10.5262 16.7671 9.95239 17.9977 8.83948 18.4027Z" stroke="currentColor" stroke-width="1.5" stroke-miterlimit="10" stroke-linecap="round" stroke-linejoin="round"/>
<path id="Vector_8" d="M27.1616 18.4027C28.2745 18.8078 29.505 18.234 29.9101 17.1211L34.3106 5.03077C34.7157 3.91786 34.1419 2.68732 33.029 2.28225C31.9161 1.87718 30.6855 2.451 30.2805 3.56391L25.8799 15.6543C25.4749 16.7671 26.0487 17.9977 27.1616 18.4027Z" stroke="currentColor" stroke-width="1.5" stroke-miterlimit="10" stroke-linecap="round" stroke-linejoin="round"/>
</g>
</svg>
