<svg width="31" height="45" viewBox="0 0 31 45" fill="none" xmlns="http://www.w3.org/2000/svg">
<g id="Group">
<path id="Vector" fill-rule="evenodd" clip-rule="evenodd" d="M15.5005 0.966797C16.4387 0.966797 21.3976 6.19822 21.3976 9.45501C21.3976 12.7118 18.7574 15.3521 15.5005 15.3521C12.2437 15.3521 9.60352 12.7119 9.60352 9.4551C9.60352 6.19831 14.5624 0.966797 15.5005 0.966797Z" stroke="currentColor" stroke-width="1.5" stroke-miterlimit="22.9256" stroke-linecap="round" stroke-linejoin="round"/>
<path id="Vector_2" fill-rule="evenodd" clip-rule="evenodd" d="M1.1875 24.6445H29.8151V27.0938C29.8151 28.706 28.9726 30.088 27.5396 30.8267L24.6148 32.3343L22.4113 41.9514C22.1289 43.1842 21.0633 44.0333 19.7986 44.0333H11.204C9.9393 44.0333 8.87362 43.1842 8.59123 41.9514L6.38772 32.3343L3.46299 30.8267C2.02993 30.088 1.1875 28.706 1.1875 27.0938V24.6445Z" stroke="currentColor" stroke-width="1.5" stroke-miterlimit="22.9256" stroke-linecap="round" stroke-linejoin="round"/>
<path id="Vector_3" d="M21.8902 15.3521H9.11328V24.6444H21.8902V15.3521Z" stroke="currentColor" stroke-width="1.5" stroke-miterlimit="22.9256" stroke-linecap="round" stroke-linejoin="round"/>
<path id="Vector_4" d="M15.5 15.3522V10.7061" stroke="currentColor" stroke-width="1.5" stroke-miterlimit="22.9256" stroke-linecap="round" stroke-linejoin="round"/>
</g>
</svg>
