<svg width="33" height="41" viewBox="0 0 33 41" fill="none" xmlns="http://www.w3.org/2000/svg">
<g id="Group">
<g id="Group_2">
<path id="Vector" d="M30.1237 18.9735C30.1237 15.825 27.5694 13.2725 24.4185 13.2725H12.9123C9.76136 13.2725 7.20703 15.825 7.20703 18.9735" stroke="#28313D" stroke-width="1.5" stroke-miterlimit="10" stroke-linejoin="round"/>
<g id="Group_3">
<path id="Vector_2" d="M7.48828 35.3294V23.7651L18.5888 35.0234L29.8447 23.7651V35.3294" stroke="#28313D" stroke-width="1.5" stroke-miterlimit="10" stroke-linejoin="bevel"/>
<path id="Vector_3" d="M32.0763 35.3291H5.25586V40.1186H32.0763V35.3291Z" stroke="#28313D" stroke-width="1.5" stroke-miterlimit="10" stroke-linecap="round" stroke-linejoin="round"/>
<path id="Vector_4" d="M32.0763 18.9756H5.25586V23.7651H32.0763V18.9756Z" stroke="#28313D" stroke-width="1.5" stroke-miterlimit="10" stroke-linecap="round" stroke-linejoin="round"/>
</g>
</g>
<path id="Vector_5" d="M18.6117 13.2725V11.4589C18.6117 10.1559 17.5546 9.09969 16.2507 9.09969H5.84922C4.54531 9.09969 3.48828 8.04346 3.48828 6.7405V5.96631" stroke="#28313D" stroke-width="1.5" stroke-miterlimit="10" stroke-linejoin="round"/>
<path id="Vector_6" d="M3.47042 5.9663C4.87579 5.9663 6.01507 4.82789 6.01507 3.42358C6.01507 2.01927 4.87579 0.880859 3.47042 0.880859C2.06506 0.880859 0.925781 2.01927 0.925781 3.42358C0.925781 4.82789 2.06506 5.9663 3.47042 5.9663Z" stroke="#28313D" stroke-width="1.5" stroke-miterlimit="10" stroke-linecap="round" stroke-linejoin="round"/>
</g>
</svg>
