<svg width="48" height="47" viewBox="0 0 48 47" fill="none" xmlns="http://www.w3.org/2000/svg">
<g id="free-icon-statue-of-liberty-11199825 1" clip-path="url(#clip0_603_74)">
<g id="Statue_Of_Liberty_1_">
<path id="Vector" d="M16.1432 5.72328C16.1432 7.30106 14.8642 8.58003 13.2864 8.58003C11.7087 8.58003 10.4297 7.30106 10.4297 5.72328C10.4297 4.1455 13.2864 0.00976562 13.2864 0.00976562C13.2864 0.00976562 16.1432 4.1455 16.1432 5.72328Z" stroke="currentColor" stroke-width="1.5" stroke-miterlimit="10" stroke-linecap="round" stroke-linejoin="round"/>
<g id="Group">
<path id="Vector_2" d="M20.4336 3.08374L23.5861 6.65539" stroke="currentColor" stroke-width="1.5" stroke-miterlimit="10" stroke-linecap="round" stroke-linejoin="round"/>
<path id="Vector_3" d="M24.7148 1.42383V6.42311" stroke="currentColor" stroke-width="1.5" stroke-miterlimit="10" stroke-linecap="round" stroke-linejoin="round"/>
<path id="Vector_4" d="M28.9962 3.08398L25.8438 6.65563" stroke="currentColor" stroke-width="1.5" stroke-miterlimit="10" stroke-linecap="round" stroke-linejoin="round"/>
</g>
<path id="Vector_5" d="M29.6863 16.7832C27.9611 20.4356 23.7613 25.706 18.7031 25.706" stroke="currentColor" stroke-width="1.5" stroke-miterlimit="10" stroke-linecap="round" stroke-linejoin="round"/>
<path id="Vector_6" d="M17.8898 39.9899L19 20.0071L16.1142 19.9925C12.97 19.9766 10.4297 17.4233 10.4297 14.2792V8.56567H16.1432V14.2792L24.9789 14.2918C28.0287 14.2983 30.5359 16.699 30.6745 19.7457L30.9337 25.4445" stroke="currentColor" stroke-width="1.5" stroke-miterlimit="10" stroke-linecap="round" stroke-linejoin="round"/>
<path id="Vector_7" d="M31.2852 33.1729L31.5953 39.9898" stroke="currentColor" stroke-width="1.5" stroke-miterlimit="10" stroke-linecap="round" stroke-linejoin="round"/>
<path id="Vector_8" d="M27.5709 9.99375C27.5709 12.3603 26.292 14.2789 24.7142 14.2789C23.1364 14.2789 21.8574 12.3603 21.8574 9.99375C21.8574 7.62717 23.1364 6.42285 24.7142 6.42285C26.292 6.42285 27.5709 7.62717 27.5709 9.99375Z" stroke="currentColor" stroke-width="1.5" stroke-miterlimit="10" stroke-linecap="round" stroke-linejoin="round"/>
<path id="Vector_9" d="M32.8647 23.5127L26.8047 29.5728L30.8447 33.6128L36.9047 27.5527L32.8647 23.5127Z" stroke="currentColor" stroke-width="1.5" stroke-miterlimit="10" stroke-linecap="round" stroke-linejoin="round"/>
<path id="Vector_10" d="M16.1445 45.8937V39.9897H33.285V45.8937" stroke="currentColor" stroke-width="1.5" stroke-miterlimit="10" stroke-linecap="round" stroke-linejoin="round"/>
<path id="Vector_11" d="M11.8594 45.9082H37.5701" stroke="currentColor" stroke-width="1.5" stroke-miterlimit="10" stroke-linecap="round" stroke-linejoin="round"/>
</g>
</g>
<defs>
<clipPath id="clip0_603_74">
<rect width="47.9592" height="47.9592" fill="white" transform="translate(0.0195312 -1.02051)"/>
</clipPath>
</defs>
</svg>
