<svg width="39" height="39" viewBox="0 0 39 39" fill="none" xmlns="http://www.w3.org/2000/svg">
<g id="Group">
<path id="Vector" d="M31.1842 20.9161L37.6236 18.8041L35.1609 8.06966C34.0339 3.153 29.6743 1.04093 25.2911 0.834473C25.2911 4.01973 22.6865 6.6243 19.5012 6.6243C16.316 6.6243 13.7093 4.01973 13.7093 0.834473C9.32603 1.04093 4.96858 3.153 3.83947 8.06966L1.37891 18.8041L7.81831 20.9161M7.81831 14.3434V38.1652H31.1842V14.3434" stroke="currentColor" stroke-width="1.5" stroke-miterlimit="10" stroke-linecap="round" stroke-linejoin="round"/>
<path id="Vector_2" d="M22.456 20.0904C22.2882 20.2646 22.0258 20.2646 21.8581 20.0904L18.7997 16.9052C16.821 14.849 19.8127 11.7283 21.7936 13.7888L22.157 14.1673L22.5205 13.7888C24.4991 11.7305 27.4887 14.8512 25.5165 16.9052L22.456 20.0904Z" stroke="currentColor" stroke-width="1.5" stroke-miterlimit="10" stroke-linecap="round" stroke-linejoin="round"/>
<path id="Vector_3" d="M14.2285 13.8896V19.445" stroke="currentColor" stroke-width="1.5" stroke-miterlimit="10" stroke-linecap="round" stroke-linejoin="round"/>
<path id="Vector_4" d="M11.2227 23.3398L12.7905 25.7401L14.3434 23.3527" stroke="currentColor" stroke-width="1.5" stroke-miterlimit="10" stroke-linecap="round" stroke-linejoin="round"/>
<path id="Vector_5" d="M12.7852 28.2459L12.7916 25.7402" stroke="currentColor" stroke-width="1.5" stroke-miterlimit="10" stroke-linecap="round" stroke-linejoin="round"/>
<path id="Vector_6" d="M24.3711 23.3398V26.7144C24.3711 27.2908 24.655 27.6779 25.1389 27.9877C25.3755 28.1382 25.6744 28.2457 26.0444 28.2457C26.3649 28.2457 26.6337 28.1726 26.8552 28.0607C27.4187 27.7747 27.78 27.3446 27.78 26.7122V23.3398" stroke="currentColor" stroke-width="1.5" stroke-miterlimit="10" stroke-linecap="round" stroke-linejoin="round"/>
<path id="Vector_7" d="M21.5426 25.7917C21.5426 24.441 20.4414 23.3398 19.0886 23.3398C17.7379 23.3398 16.6367 24.441 16.6367 25.7917C16.6367 27.1423 17.7379 28.2457 19.0886 28.2457C20.4414 28.2457 21.5426 27.1423 21.5426 25.7917Z" stroke="currentColor" stroke-width="1.5" stroke-miterlimit="10" stroke-linecap="round" stroke-linejoin="round"/>
</g>
</svg>
