<svg width="30" height="43" viewBox="0 0 30 43" fill="none" xmlns="http://www.w3.org/2000/svg">
<g id="Layer_1">
<g id="Group">
<g id="Group_2">
<g id="Group_3">
<g id="Group_4">
<path id="Vector" fill-rule="evenodd" clip-rule="evenodd" d="M25.4837 33.8049C25.2067 33.8049 24.9493 33.6279 24.8599 33.3502C24.7489 33.0056 24.9382 32.6362 25.2828 32.5251C27.0315 31.9617 28.2064 30.3487 28.2064 28.5114V25.2224H25.4838C25.1218 25.2224 24.8282 24.9288 24.8282 24.5667C24.8282 24.2047 25.1218 23.9111 25.4838 23.9111H28.8619C29.224 23.9111 29.5175 24.2047 29.5175 24.5667V28.5116C29.5175 29.689 29.151 30.8146 28.4578 31.7664C27.7645 32.7182 26.8056 33.4121 25.6848 33.7733C25.6181 33.7947 25.5503 33.8049 25.4837 33.8049Z" fill="currentColor"/>
</g>
<g id="Group_5">
<path id="Vector_2" fill-rule="evenodd" clip-rule="evenodd" d="M28.8618 27.4018H25.4837C25.1217 27.4018 24.8281 27.1082 24.8281 26.7462C24.8281 26.3841 25.1217 26.0906 25.4837 26.0906H28.8618C29.2239 26.0906 29.5174 26.3841 29.5174 26.7462C29.5174 27.1082 29.224 27.4018 28.8618 27.4018Z" fill="currentColor"/>
</g>
</g>
<g id="Group_6">
<g id="Group_7">
<path id="Vector_3" fill-rule="evenodd" clip-rule="evenodd" d="M4.57495 33.805C4.50825 33.805 4.44053 33.7948 4.37372 33.7733C3.25292 33.4121 2.29409 32.7182 1.6008 31.7664C0.90752 30.8146 0.541016 29.6891 0.541016 28.5116V24.5667C0.541016 24.2047 0.83456 23.9111 1.19662 23.9111H4.57484C4.9369 23.9111 5.23045 24.2047 5.23045 24.5667C5.23045 24.9288 4.9369 25.2224 4.57484 25.2224H1.85235V28.5116C1.85235 30.3487 3.02721 31.9618 4.77596 32.5252C5.12061 32.6363 5.31001 33.0057 5.19892 33.3503C5.10934 33.628 4.85188 33.8049 4.57495 33.805Z" fill="currentColor"/>
</g>
<g id="Group_8">
<path id="Vector_4" fill-rule="evenodd" clip-rule="evenodd" d="M4.57472 27.4018H1.19662C0.83456 27.4018 0.541016 27.1082 0.541016 26.7462C0.541016 26.3841 0.83456 26.0906 1.19662 26.0906H4.57472C4.93679 26.0906 5.23033 26.3841 5.23033 26.7462C5.23033 27.1082 4.93679 27.4018 4.57472 27.4018Z" fill="currentColor"/>
</g>
</g>
<g id="Group_9">
<path id="Vector_5" fill-rule="evenodd" clip-rule="evenodd" d="M23.33 19.1046H6.72973C4.43942 19.1046 2.57617 17.2413 2.57617 14.951V6.98811C2.57617 5.44971 3.82775 4.19824 5.36604 4.19824H24.6934C26.2318 4.19824 27.4834 5.44982 27.4834 6.98811V14.951C27.4834 17.2413 25.6203 19.1046 23.33 19.1046ZM5.36616 5.50946C4.55086 5.50946 3.88751 6.17281 3.88751 6.98823V14.9512C3.88751 16.5185 5.16253 17.7935 6.72973 17.7935H23.33C24.8972 17.7935 26.1722 16.5185 26.1722 14.9512V6.98823C26.1722 6.17293 25.5089 5.50958 24.6934 5.50958L5.36616 5.50946Z" fill="currentColor"/>
</g>
<g id="Group_10">
<path id="Vector_6" fill-rule="evenodd" clip-rule="evenodd" d="M25.4831 35.5966H4.57358C4.21151 35.5966 3.91797 35.3031 3.91797 34.941V17.7069C3.91797 17.3448 4.21151 17.0513 4.57358 17.0513C4.93564 17.0513 5.22919 17.3448 5.22919 17.7069V34.2853H24.8275V17.7069C24.8275 17.3448 25.121 17.0513 25.4831 17.0513C25.8452 17.0513 26.1387 17.3448 26.1387 17.7069V34.9409C26.1387 35.3031 25.8452 35.5966 25.4831 35.5966Z" fill="currentColor"/>
</g>
<g id="Group_11">
<path id="Vector_7" fill-rule="evenodd" clip-rule="evenodd" d="M24.6078 42.064H5.4497C3.3052 42.064 1.56055 40.3193 1.56055 38.1748C1.56055 36.0303 3.3052 34.2856 5.4497 34.2856C5.81177 34.2856 6.10531 34.5792 6.10531 34.9413C6.10531 35.3033 5.81177 35.5969 5.4497 35.5969C4.02819 35.5969 2.87177 36.7533 2.87177 38.1748C2.87177 39.5963 4.02819 40.7527 5.4497 40.7527H24.6078C26.0294 40.7527 27.1858 39.5962 27.1858 38.1748C27.1858 36.7533 26.0294 35.5969 24.6078 35.5969C24.2458 35.5969 23.9522 35.3033 23.9522 34.9413C23.9522 34.5792 24.2458 34.2856 24.6078 34.2856C26.7523 34.2856 28.497 36.0303 28.497 38.1748C28.4971 40.3192 26.7525 42.064 24.6078 42.064Z" fill="currentColor"/>
</g>
<g id="Group_12">
<g id="Group_13">
<g id="Group_14">
<path id="Vector_8" fill-rule="evenodd" clip-rule="evenodd" d="M11.4115 26.5315C11.0494 26.5315 10.7559 26.238 10.7559 25.8759V18.4491C10.7559 18.087 11.0494 17.7935 11.4115 17.7935C11.7735 17.7935 12.0671 18.087 12.0671 18.4491V25.8759C12.0671 26.238 11.7736 26.5315 11.4115 26.5315Z" fill="currentColor"/>
</g>
<g id="Group_15">
<path id="Vector_9" fill-rule="evenodd" clip-rule="evenodd" d="M8.30014 26.5315C7.93808 26.5315 7.64453 26.238 7.64453 25.8759V18.4491C7.64453 18.087 7.93808 17.7935 8.30014 17.7935C8.66221 17.7935 8.95575 18.087 8.95575 18.4491V25.8759C8.95575 26.238 8.66221 26.5315 8.30014 26.5315Z" fill="currentColor"/>
</g>
<g id="Group_16">
<path id="Vector_10" fill-rule="evenodd" clip-rule="evenodd" d="M9.85619 32.1523C9.68136 32.1523 9.51393 32.0826 9.39077 31.9584L7.83473 30.3898C7.71294 30.267 7.64453 30.1011 7.64453 29.9282V28.5433C7.64453 28.1812 7.93808 27.8877 8.30014 27.8877C8.66221 27.8877 8.95575 28.1812 8.95575 28.5433V29.6581L9.85619 30.5658L10.7569 29.6581V28.5433C10.7569 28.1812 11.0504 27.8877 11.4125 27.8877C11.7745 27.8877 12.0681 28.1812 12.0681 28.5433V29.9282C12.0681 30.1012 11.9997 30.2671 11.8779 30.3899L10.3215 31.9585C10.1986 32.0826 10.031 32.1523 9.85619 32.1523Z" fill="currentColor"/>
</g>
<g id="Group_17">
<path id="Vector_11" fill-rule="evenodd" clip-rule="evenodd" d="M12.2567 29.1993H7.45444C7.09237 29.1993 6.79883 28.9057 6.79883 28.5437V25.8758C6.79883 25.5138 7.09237 25.2202 7.45444 25.2202H12.2567C12.6187 25.2202 12.9123 25.5138 12.9123 25.8758V28.5437C12.9123 28.9057 12.6187 29.1993 12.2567 29.1993ZM8.11005 27.8881H11.6011V26.5314H8.11005V27.8881Z" fill="currentColor"/>
</g>
</g>
<g id="Group_18">
<g id="Group_19">
<path id="Vector_12" fill-rule="evenodd" clip-rule="evenodd" d="M21.7611 26.5315C21.399 26.5315 21.1055 26.238 21.1055 25.8759V18.4491C21.1055 18.087 21.399 17.7935 21.7611 17.7935C22.1231 17.7935 22.4167 18.087 22.4167 18.4491V25.8759C22.4167 26.238 22.1231 26.5315 21.7611 26.5315Z" fill="currentColor"/>
</g>
<g id="Group_20">
<path id="Vector_13" fill-rule="evenodd" clip-rule="evenodd" d="M18.6478 26.5315C18.2857 26.5315 17.9922 26.238 17.9922 25.8759V18.4491C17.9922 18.087 18.2857 17.7935 18.6478 17.7935C19.0099 17.7935 19.3034 18.087 19.3034 18.4491V25.8759C19.3034 26.238 19.0099 26.5315 18.6478 26.5315Z" fill="currentColor"/>
</g>
<g id="Group_21">
<path id="Vector_14" fill-rule="evenodd" clip-rule="evenodd" d="M20.2038 32.1523C20.029 32.1523 19.8615 32.0826 19.7384 31.9584L18.1824 30.3898C18.0606 30.267 17.9922 30.1011 17.9922 29.9282V28.5433C17.9922 28.1812 18.2857 27.8877 18.6478 27.8877C19.0099 27.8877 19.3034 28.1812 19.3034 28.5433V29.6581L20.2038 30.5658L21.1045 29.6581V28.5433C21.1045 28.1812 21.3981 27.8877 21.7601 27.8877C22.1222 27.8877 22.4157 28.1812 22.4157 28.5433V29.9282C22.4157 30.1012 22.3473 30.2671 22.2255 30.3899L20.6691 31.9585C20.5461 32.0826 20.3786 32.1523 20.2038 32.1523Z" fill="currentColor"/>
</g>
<g id="Group_22">
<path id="Vector_15" fill-rule="evenodd" clip-rule="evenodd" d="M22.6063 29.1993H17.804C17.442 29.1993 17.1484 28.9057 17.1484 28.5437V25.8758C17.1484 25.5138 17.442 25.2202 17.804 25.2202H22.6063C22.9683 25.2202 23.2619 25.5138 23.2619 25.8758V28.5437C23.2619 28.9057 22.9683 29.1993 22.6063 29.1993ZM18.4597 27.8881H21.9507V26.5314H18.4597V27.8881Z" fill="currentColor"/>
</g>
</g>
</g>
<g id="Group_23">
<g id="Group_24">
<g id="Group_25">
<path id="Vector_16" fill-rule="evenodd" clip-rule="evenodd" d="M7.27475 42.0636C6.91268 42.0636 6.61914 41.77 6.61914 41.408V34.9408C6.61914 34.5787 6.91268 34.2852 7.27475 34.2852C7.63681 34.2852 7.93036 34.5787 7.93036 34.9408V41.408C7.93036 41.77 7.63681 42.0636 7.27475 42.0636Z" fill="currentColor"/>
</g>
<g id="Group_26">
<path id="Vector_17" fill-rule="evenodd" clip-rule="evenodd" d="M9.67514 42.0636C9.31308 42.0636 9.01953 41.77 9.01953 41.408V34.9408C9.01953 34.5787 9.31308 34.2852 9.67514 34.2852C10.0372 34.2852 10.3308 34.5787 10.3308 34.9408V41.408C10.3308 41.77 10.0372 42.0636 9.67514 42.0636Z" fill="currentColor"/>
</g>
</g>
<g id="Group_27">
<g id="Group_28">
<path id="Vector_18" fill-rule="evenodd" clip-rule="evenodd" d="M20.3822 42.0636C20.0201 42.0636 19.7266 41.77 19.7266 41.408V34.9408C19.7266 34.5787 20.0201 34.2852 20.3822 34.2852C20.7442 34.2852 21.0378 34.5787 21.0378 34.9408V41.408C21.0378 41.77 20.7442 42.0636 20.3822 42.0636Z" fill="currentColor"/>
</g>
<g id="Group_29">
<path id="Vector_19" fill-rule="evenodd" clip-rule="evenodd" d="M22.7826 42.0636C22.4205 42.0636 22.127 41.77 22.127 41.408V34.9408C22.127 34.5787 22.4205 34.2852 22.7826 34.2852C23.1446 34.2852 23.4382 34.5787 23.4382 34.9408V41.408C23.4382 41.77 23.1446 42.0636 22.7826 42.0636Z" fill="currentColor"/>
</g>
</g>
</g>
<g id="Group_30">
<g id="Group_31">
<path id="Vector_20" fill-rule="evenodd" clip-rule="evenodd" d="M18.2824 11.4777H11.7767C11.4146 11.4777 11.1211 11.1842 11.1211 10.8221V7.89316C11.1211 7.53109 11.4146 7.23755 11.7767 7.23755H18.2824C18.6444 7.23755 18.938 7.53109 18.938 7.89316V10.8221C18.938 11.1842 18.6444 11.4777 18.2824 11.4777ZM12.4323 10.1665H17.6268V8.54877H12.4323V10.1665Z" fill="currentColor"/>
</g>
<g id="Group_32">
<path id="Vector_21" fill-rule="evenodd" clip-rule="evenodd" d="M16.4653 16.066H13.591C12.5501 16.066 11.7031 15.2192 11.7031 14.1781V10.8224C11.7031 10.4603 11.9967 10.1667 12.3587 10.1667H17.6974C18.0595 10.1667 18.353 10.4603 18.353 10.8224V14.1781C18.3531 15.2192 17.5062 16.066 16.4653 16.066ZM13.0143 11.4781V14.1783C13.0143 14.4962 13.2729 14.7549 13.591 14.7549H16.4653C16.7832 14.7549 17.0418 14.4963 17.0418 14.1783V11.478L13.0143 11.4781Z" fill="currentColor"/>
</g>
</g>
<g id="Group_33">
<path id="Vector_22" fill-rule="evenodd" clip-rule="evenodd" d="M11.3007 5.49859C10.9979 5.49859 10.7259 5.28768 10.6601 4.97957L9.90002 1.41571H4.92672L5.62854 4.70617C5.70411 5.06026 5.47818 5.40856 5.12408 5.48413C4.76998 5.5596 4.42169 5.33389 4.34611 4.97968L3.47538 0.896916C3.43407 0.70342 3.48244 0.5015 3.60696 0.347728C3.73148 0.193956 3.91872 0.104492 4.11654 0.104492H10.4305C10.7399 0.104492 11.0072 0.320752 11.0717 0.623403L11.9424 4.70617C12.018 5.06026 11.7921 5.40856 11.438 5.48413C11.392 5.49392 11.346 5.49859 11.3007 5.49859Z" fill="currentColor"/>
</g>
<g id="Group_34">
<path id="Vector_23" fill-rule="evenodd" clip-rule="evenodd" d="M25.0719 5.49882C25.0266 5.49882 24.9807 5.49415 24.9346 5.48425C24.5805 5.40867 24.3545 5.06038 24.4301 4.70628L25.1319 1.41583H20.1586L19.3985 4.97968C19.3229 5.33378 18.9746 5.5596 18.6206 5.48413C18.2665 5.40856 18.0406 5.06026 18.1161 4.70617L18.9868 0.623403C19.0514 0.320752 19.3186 0.104492 19.628 0.104492H25.942C26.1398 0.104492 26.3272 0.193842 26.4516 0.347728C26.5761 0.501614 26.6243 0.703419 26.5831 0.896915L25.7123 4.97968C25.6468 5.28779 25.3748 5.49882 25.0719 5.49882Z" fill="currentColor"/>
</g>
<g id="Group_35">
<path id="Vector_24" fill-rule="evenodd" clip-rule="evenodd" d="M18.1634 5.51015C17.8286 5.51015 17.5444 5.25565 17.5116 4.91828C17.5108 4.911 17.5101 4.90371 17.5095 4.89643C17.4827 4.566 17.3916 4.24992 17.2385 3.95661C17.2365 3.95296 17.2346 3.94921 17.2328 3.94545C16.8005 3.1248 15.9575 2.61568 15.03 2.61568C14.1025 2.61568 13.2595 3.12492 12.8271 3.94557C12.8253 3.94932 12.8234 3.95296 12.8214 3.95661C12.6683 4.24992 12.577 4.56612 12.5504 4.89643C12.5498 4.90383 12.549 4.91134 12.5482 4.91874C12.513 5.27272 12.201 5.53542 11.8446 5.50776C11.4838 5.47942 11.214 5.16448 11.2423 4.80366C11.2428 4.79626 11.2436 4.7875 11.2447 4.77737C11.2865 4.28066 11.4238 3.80488 11.6526 3.36257C11.6546 3.35836 11.6568 3.35415 11.659 3.35005C12.3164 2.08846 13.608 1.30469 15.03 1.30469C16.452 1.30469 17.7437 2.08846 18.401 3.35005C18.4032 3.35426 18.4054 3.35836 18.4074 3.36257C18.6362 3.80477 18.7734 4.28054 18.8154 4.77726C18.8165 4.78773 18.8172 4.79661 18.8179 4.80355C18.846 5.16459 18.5762 5.47999 18.2152 5.50822C18.1978 5.50947 18.1805 5.51015 18.1634 5.51015ZM12.5447 4.94389C12.5447 4.94412 12.5446 4.94435 12.5446 4.94457C12.5447 4.94435 12.5447 4.94412 12.5447 4.94389ZM17.5138 4.93513C17.5141 4.93797 17.5146 4.94082 17.5151 4.94366C17.5146 4.94082 17.5143 4.93797 17.5138 4.93513ZM12.5449 4.94309C12.5449 4.94321 12.5448 4.94344 12.5448 4.94355C12.5448 4.94344 12.5448 4.94332 12.5449 4.94309ZM12.5449 4.9423C12.5449 4.94252 12.5448 4.94275 12.5448 4.94287C12.5449 4.94275 12.5449 4.94252 12.5449 4.9423ZM12.5494 4.90508V4.90565C12.5494 4.90553 12.5494 4.90531 12.5494 4.90508Z" fill="currentColor"/>
</g>
</g>
</g>
</g>
</svg>
