<svg width="36" height="48" viewBox="0 0 36 48" fill="none" xmlns="http://www.w3.org/2000/svg">
<g id="Group">
<path id="Vector" fill-rule="evenodd" clip-rule="evenodd" d="M18.0001 1.03125C18.5772 1.03125 23.6231 7.39116 23.6231 10.4967C23.6231 13.6023 21.1055 16.1198 18.0001 16.1198C14.8945 16.1198 12.377 13.6022 12.377 10.4967C12.377 7.39116 17.423 1.03125 18.0001 1.03125Z" stroke="currentColor" stroke-width="1.5" stroke-miterlimit="22.9256" stroke-linecap="round" stroke-linejoin="round"/>
<path id="Vector_2" d="M23.2173 25.1436V27.5749C23.2173 31.0366 21.4159 34.0043 18.3448 35.6019L17.9993 35.7817L17.6537 35.6019C14.5828 34.0043 12.7812 31.0366 12.7812 27.5749V25.1436" stroke="currentColor" stroke-width="1.5" stroke-miterlimit="22.9256" stroke-linecap="round" stroke-linejoin="round"/>
<path id="Vector_3" d="M12.666 25.1436L11.9525 27.9897C11.04 31.6476 8.49033 33.83 4.90327 34.6896C3.95752 33.853 2.78002 32.4209 2.16211 31.2987" stroke="currentColor" stroke-width="1.5" stroke-miterlimit="22.9256" stroke-linecap="round" stroke-linejoin="round"/>
<path id="Vector_4" d="M23.3281 25.1436L24.049 27.9897C24.9614 31.6476 27.5111 33.8299 31.0982 34.6896C32.044 33.8531 33.101 32.5684 33.7689 31.0819" stroke="currentColor" stroke-width="1.5" stroke-miterlimit="22.9256" stroke-linecap="round" stroke-linejoin="round"/>
<path id="Vector_5" d="M5.42278 24.8611L2.98397 29.3596C1.49728 32.1224 1.1925 35.3008 2.83866 37.9719L7.41862 45.4033C7.99378 46.3366 8.84466 46.9688 9.94125 46.9688C16.7276 46.9688 19.2728 46.9688 26.0591 46.9688C27.1556 46.9688 28.0065 46.3368 28.5818 45.4033L33.1618 37.9719C34.8081 35.3007 34.5033 32.1227 33.0165 29.3596L30.5777 24.8611" stroke="currentColor" stroke-width="1.5" stroke-miterlimit="22.9256" stroke-linecap="round" stroke-linejoin="round"/>
<path id="Vector_6" fill-rule="evenodd" clip-rule="evenodd" d="M6.65802 19.4253H29.3409C30.9135 19.4253 32.2001 20.7119 32.2001 22.2845C32.2001 23.857 30.9135 25.1437 29.3409 25.1437H6.65802C5.08545 25.1437 3.79883 23.857 3.79883 22.2845C3.79892 20.7119 5.08545 19.4253 6.65802 19.4253Z" stroke="currentColor" stroke-width="1.5" stroke-miterlimit="22.9256" stroke-linecap="round" stroke-linejoin="round"/>
<path id="Vector_7" d="M18 19.4253V13.8022" stroke="currentColor" stroke-width="1.5" stroke-miterlimit="22.9256" stroke-linecap="round" stroke-linejoin="round"/>
</g>
</svg>
