<svg width="28" height="44" viewBox="0 0 28 44" fill="none" xmlns="http://www.w3.org/2000/svg">
<g id="Group 3115909">
<path id="Vector" d="M24.4863 0.945312C27.9707 5.58542 27.9707 12.0306 24.4863 16.6708" stroke="currentColor" stroke-width="1.5" stroke-miterlimit="10" stroke-linecap="round" stroke-linejoin="round"/>
<path id="Vector_2" d="M3.5156 16.6708C0.0312598 12.0307 0.0312598 5.58551 3.5156 0.945312" stroke="currentColor" stroke-width="1.5" stroke-miterlimit="10" stroke-linecap="round" stroke-linejoin="round"/>
<path id="Vector_3" d="M14.0014 16.6708C18.3439 16.6708 21.8642 13.1506 21.8642 8.80808C21.8642 4.46559 18.3439 0.945312 14.0014 0.945312C9.65895 0.945312 6.13867 4.46559 6.13867 8.80808C6.13867 13.1506 9.65895 16.6708 14.0014 16.6708Z" stroke="currentColor" stroke-width="1.5" stroke-miterlimit="10" stroke-linecap="round" stroke-linejoin="round"/>
<path id="Vector_4" d="M7.70703 13.5215C7.70703 13.5215 10.8575 17.8498 11.3801 21.9127C11.9027 25.9755 9.32927 33.5276 9.32927 33.5276C8.96473 34.4203 8.75916 35.4313 8.75916 36.5025C8.75916 40.1212 11.106 43.0548 14.001 43.0548C16.896 43.0548 19.2429 40.1212 19.2429 36.5025C19.2429 35.4313 19.0373 34.4204 18.6727 33.5276C18.6727 33.5276 16.0993 25.9755 16.6219 21.9127C17.1445 17.8498 20.295 13.5215 20.295 13.5215" stroke="currentColor" stroke-width="1.5" stroke-miterlimit="10" stroke-linecap="round" stroke-linejoin="round"/>
<path id="Vector_5" d="M14 35.1919V37.8128" stroke="currentColor" stroke-width="1.5" stroke-miterlimit="10" stroke-linecap="round" stroke-linejoin="round"/>
<path id="Vector_6" d="M14 6.03224V6" stroke="currentColor" stroke-width="1.5" stroke-miterlimit="10" stroke-linecap="round" stroke-linejoin="round"/>
<path id="Vector_7" d="M14 12.0322V12" stroke="currentColor" stroke-width="1.5" stroke-miterlimit="10" stroke-linecap="round" stroke-linejoin="round"/>
<path id="Vector_8" d="M17 9.03224V9" stroke="currentColor" stroke-width="1.5" stroke-miterlimit="10" stroke-linecap="round" stroke-linejoin="round"/>
<path id="Vector_9" d="M11 9.03224V9" stroke="currentColor" stroke-width="1.5" stroke-miterlimit="10" stroke-linecap="round" stroke-linejoin="round"/>
</g>
</svg>
