<svg width="45" height="45" viewBox="0 0 45 45" fill="none" xmlns="http://www.w3.org/2000/svg">
<g id="g3351">
<g id="g3353">
<g id="Clip path group">
<mask id="mask0_603_2" style="mask-type:luminance" maskUnits="userSpaceOnUse" x="0" y="0" width="45" height="45">
<g id="clipPath3359">
<path id="path3357" d="M45 3.8147e-06H3.8147e-06V45H45V3.8147e-06Z" fill="white"/>
</g>
</mask>
<g mask="url(#mask0_603_2)">
<g id="g3355">
<g id="g3361">
<path id="path3363" d="M7.91495 17.8381C7.97727 17.8325 8.0402 17.8287 8.10392 17.8287C9.23744 17.8287 10.1562 18.7475 10.1562 19.8809C10.1562 20.4768 9.90075 21.0113 9.49505 21.386C9.40909 21.3442 9.32305 21.3025 9.23858 21.2585C7.98034 20.6041 7.44887 19.1233 7.91495 17.8381Z" fill="currentColor"/>
</g>
<g id="g3365">
<path id="path3367" d="M21.6055 4.84833C21.3443 2.24123 20.0414 0.87875 18.4733 0.87875C16.7172 0.87875 15.2935 2.58761 15.2935 5.84C15.2935 8.17543 16.0275 10.6717 17.0917 11.8936" stroke="currentColor" stroke-width="1.5" stroke-miterlimit="10" stroke-linecap="round" stroke-linejoin="round"/>
</g>
<g id="g3369">
<path id="path3371" d="M19.7284 40.6348C18.7964 39.5054 18.2365 38.0577 18.2365 36.4791C18.2365 32.871 21.1615 29.946 24.7695 29.946" stroke="currentColor" stroke-width="1.5" stroke-miterlimit="10" stroke-linecap="round" stroke-linejoin="round"/>
</g>
<g id="g3373">
<path id="path3375" d="M21.3999 40.6349H19.327C17.4033 40.6349 15.844 42.1943 15.844 44.1179H32.4609" stroke="currentColor" stroke-width="1.5" stroke-miterlimit="10" stroke-linecap="round" stroke-linejoin="round"/>
</g>
<g id="g3377">
<path id="path3379" d="M33.2882 37.0407C34.9335 37.0407 36.3846 37.8706 37.2469 39.1342C37.2496 39.1997 37.252 39.2652 37.252 39.3313C37.252 41.9766 35.1074 44.1211 32.4622 44.1211C30.8169 44.1211 29.3657 43.2912 28.5034 42.0275C28.5007 41.9621 28.4984 41.8966 28.4984 41.8305C28.4984 39.1852 30.6428 37.0407 33.2882 37.0407Z" stroke="currentColor" stroke-width="1.5" stroke-miterlimit="10" stroke-linecap="round" stroke-linejoin="round"/>
</g>
<g id="g3381">
<path id="path3383" d="M15.8443 44.1179H13.8999C12.8185 44.1179 12.1238 42.9695 12.6257 42.0116L13.3776 40.5772C14.0288 39.3346 14.174 37.8883 13.7829 36.5411C13.597 35.9006 13.2947 35.2999 12.8911 34.7688L11.5324 32.981C10.7716 31.98 10.3148 30.7812 10.2165 29.5277C10.0867 27.8724 10.5898 26.2296 11.6245 24.931C12.1776 24.2368 12.4788 23.3755 12.4788 22.4879C12.4788 22.4079 12.4213 22.3401 12.3426 22.3256C11.2431 22.1227 10.2 21.7585 9.23905 21.2586C7.82023 20.5209 7.32435 18.7319 8.14235 17.3578C10.0882 14.0889 13.7088 11.8986 17.7893 11.8986C18.4646 11.9022 19.0405 11.4098 19.1403 10.7418C19.3435 9.37977 19.8556 7.84414 20.5881 6.50293C22.2214 3.51272 24.329 2.62397 25.8702 3.46578C27.4114 4.3076 27.8028 6.5612 26.1695 9.55151C25.1291 11.4563 23.5183 13.2002 22.0875 13.9977C21.6244 14.2559 21.3579 14.7552 21.4004 15.2838C21.4082 15.3814 21.4123 17.5247 21.4123 17.5247C21.4123 18.4776 21.2743 19.432 20.9361 20.3228C20.5357 21.3771 21.3171 22.5112 22.4406 22.5112C29.2274 22.5112 34.872 27.8779 35.0484 34.6625C35.0715 35.5498 35.002 36.4169 34.8488 37.2547" stroke="currentColor" stroke-width="1.5" stroke-miterlimit="10" stroke-linecap="round" stroke-linejoin="round"/>
</g>
<g id="g3385">
<path id="path3387" d="M14.0886 16.8637C14.0886 17.5452 14.6411 18.0977 15.3226 18.0977C16.0042 18.0977 16.5566 17.5452 16.5566 16.8637C16.5566 16.1821 16.0042 15.6296 15.3226 15.6296C14.6411 15.6296 14.0886 16.1821 14.0886 16.8637Z" fill="currentColor"/>
</g>
</g>
</g>
</g>
</g>
</g>
</svg>
