<svg width="63" height="63" viewBox="0 0 63 63" fill="none" xmlns="http://www.w3.org/2000/svg">
<g clip-path="url(#clip0_1320_9708)">
<rect width="63" height="63" rx="8" fill="#F94444" fill-opacity="0.1"/>
<path fill-rule="evenodd" clip-rule="evenodd" d="M1.64559 32.9387C0.0817336 33.2191 -1.35246 33.9878 -2.45986 35.139C-3.56726 36.2902 -4.2935 37.7675 -4.53877 39.3677C-4.78403 40.9678 -4.53628 42.6124 -3.82956 44.0754C-3.12284 45.5384 -1.99185 46.7479 -0.592043 47.5377C0.807763 48.3275 2.40767 48.6588 3.98776 48.4861C5.56785 48.3134 7.05056 47.6451 8.23209 46.5732C9.41363 45.5013 10.236 44.0783 10.5861 42.4998C10.9362 40.9213 10.797 39.2649 10.1874 37.7581C9.51162 36.0827 8.29323 34.6888 6.73742 33.811C5.1816 32.9332 3.3834 32.6251 1.64559 32.9387ZM4.77625 44.5158C3.99369 44.8665 3.11995 44.957 2.27783 44.7744C1.43571 44.5919 0.667538 44.1455 0.0812831 43.4981C-0.504972 42.8507 -0.87984 42.0347 -0.990636 41.1649C-1.10143 40.2951 -0.942587 39.4151 -0.536423 38.6487C-0.13026 37.8823 0.502802 37.268 1.27379 36.8921C2.04478 36.5162 2.91493 36.3976 3.76196 36.553C4.60898 36.7084 5.3903 37.1299 5.99609 37.7584C6.60189 38.3869 7.00171 39.1907 7.13936 40.0568C7.28441 40.9678 7.1315 41.8984 6.7043 42.7044C6.2771 43.5105 5.59945 44.1472 4.77625 44.5158ZM12.2469 30.1586C11.9911 30.2341 11.7559 30.3671 11.5582 30.5478C11.3605 30.7285 11.2053 30.9524 11.104 31.2032C11.0027 31.4539 10.9577 31.7253 10.9725 31.9975C10.9872 32.2697 11.0612 32.5359 11.1891 32.7767C11.5942 33.5595 12.518 33.905 13.3434 33.6633L18.1334 32.2605L13.6358 44.5403C13.6025 44.631 13.5948 44.7297 13.6134 44.8253C13.6321 44.9209 13.6764 45.0096 13.7415 45.0815C13.8065 45.1535 13.8897 45.2058 13.9817 45.2325C14.0737 45.2593 14.1709 45.2595 14.2623 45.2331L25.9551 41.809C26.78 41.5674 27.3721 40.7782 27.2909 39.9004C27.2687 39.6287 27.1875 39.3646 27.0531 39.1275C26.9187 38.8904 26.7346 38.6861 26.5141 38.5296C26.2935 38.373 26.0422 38.2681 25.7783 38.2225C25.5144 38.1769 25.2446 38.1917 24.9885 38.2659L19.1523 39.975L23.6464 27.7048C23.68 27.6132 23.6879 27.5136 23.669 27.417C23.6502 27.3205 23.6054 27.2309 23.5396 27.1583C23.4739 27.0857 23.3899 27.033 23.297 27.006C23.2041 26.979 23.106 26.9789 23.0137 27.0056L12.2469 30.1586ZM58.9826 16.5166C58.6231 16.7241 58.3453 17.0515 58.1953 17.4446C58.0452 17.8377 58.0319 18.2728 58.1574 18.6782L59.8754 24.545L48.3723 19.6999C48.2821 19.662 48.1836 19.6508 48.0882 19.6674C47.9927 19.684 47.9041 19.7279 47.8325 19.7939C47.761 19.8599 47.7095 19.9454 47.6838 20.0406C47.6582 20.1357 47.6595 20.2366 47.6876 20.3318L51.2349 32.4453C51.3479 32.8543 51.5939 33.2136 51.9323 33.4636C52.2706 33.7137 52.6811 33.8395 53.0958 33.8204C53.3638 33.8034 53.6238 33.7252 53.8568 33.5916C54.0897 33.458 54.2896 33.2724 54.4417 33.0485C54.5939 32.8245 54.6943 32.568 54.7357 32.2978C54.7771 32.0276 54.7583 31.7506 54.6808 31.4873L52.9479 25.5698L64.4512 30.415C64.5413 30.4528 64.6398 30.464 64.7352 30.4474C64.8307 30.4308 64.9192 30.3869 64.9908 30.321C65.0623 30.255 65.1138 30.1695 65.1394 30.0744C65.165 29.9793 65.1637 29.8784 65.1356 29.7833L61.5754 17.6256C61.4985 17.3621 61.3649 17.1189 61.1843 16.9138C61.0037 16.7087 60.7807 16.5469 60.5319 16.4405C60.2831 16.3341 60.0147 16.2856 59.7466 16.2988C59.4784 16.312 59.2173 16.3864 58.9826 16.5166ZM35.7209 26.744C39.6493 25.5936 43.2069 26.8589 43.7635 28.7596C44.3202 30.6604 42.0071 33.6448 38.0786 34.7953C34.1501 35.9457 30.5925 34.6804 30.0359 32.7796C29.4793 30.8789 31.7924 27.8944 35.7209 26.744ZM34.689 23.2205C29.0027 24.8857 25.3829 29.6155 26.6038 33.7847C27.8248 37.9539 33.4241 39.9839 39.1104 38.3188C44.7967 36.6536 48.4164 31.9239 47.1955 27.7546C45.9745 23.5854 40.3752 21.5554 34.689 23.2205Z" fill="#F94444"/>
</g>
<defs>
<clipPath id="clip0_1320_9708">
<rect width="63" height="63" rx="8" fill="white"/>
</clipPath>
</defs>
</svg>
