<svg width="64" height="63" viewBox="0 0 64 63" fill="none" xmlns="http://www.w3.org/2000/svg">
<rect x="0.333496" width="63" height="63" rx="8" fill="#F94444" fill-opacity="0.1"/>
<path d="M17.4907 39.9849H17.8081C19.2681 39.9849 20.4847 39.7944 21.458 39.4136C22.4419 39.0221 23.2248 38.4826 23.8066 37.7949C24.3885 37.1073 24.8064 36.2979 25.0603 35.3669C25.3142 34.436 25.4412 33.4256 25.4412 32.3359V28.3528C25.4412 27.4112 25.3407 26.586 25.1396 25.8772C24.9492 25.1578 24.6742 24.5601 24.3145 24.084C23.9653 23.5973 23.558 23.2323 23.0925 22.989C22.6376 22.7457 22.1457 22.624 21.6167 22.624C21.0348 22.624 20.5111 22.7563 20.0457 23.0208C19.5907 23.2747 19.2046 23.6291 18.8872 24.084C18.5804 24.5283 18.3424 25.052 18.1731 25.655C18.0144 26.2475 17.9351 26.8822 17.9351 27.5593C17.9351 28.1941 18.0091 28.8077 18.1572 29.4001C18.3159 29.982 18.5487 30.5004 18.8555 30.9553C19.1623 31.4102 19.5484 31.7699 20.0139 32.0344C20.4794 32.2989 21.0243 32.4312 21.6484 32.4312C22.2409 32.4312 22.7857 32.3201 23.283 32.0979C23.7802 31.8652 24.2139 31.5531 24.5842 31.1616C24.9545 30.7702 25.2454 30.3311 25.457 29.8445C25.6686 29.3578 25.785 28.8606 25.8062 28.3528L27.2661 28.7971C27.2661 29.6012 27.0968 30.3946 26.7583 31.1775C26.4303 31.9498 25.9701 32.6586 25.3777 33.304C24.7958 33.9387 24.1134 34.4465 23.3306 34.8274C22.5583 35.2083 21.7172 35.3987 20.8074 35.3987C19.7071 35.3987 18.7338 35.1924 17.8875 34.7798C17.0517 34.3566 16.3534 33.7853 15.7927 33.0659C15.2426 32.3465 14.83 31.5213 14.5549 30.5903C14.2799 29.6593 14.1423 28.6807 14.1423 27.6545C14.1423 26.5437 14.3116 25.5016 14.6501 24.5283C14.9887 23.555 15.4806 22.6981 16.126 21.9575C16.7713 21.2064 17.5542 20.6245 18.4746 20.2119C19.4056 19.7887 20.4583 19.5771 21.6326 19.5771C22.8809 19.5771 23.9759 19.8205 24.9175 20.3071C25.859 20.7938 26.6525 21.4656 27.2979 22.3225C27.9432 23.1794 28.4299 24.1739 28.7578 25.3059C29.0858 26.4379 29.2498 27.6545 29.2498 28.9558V30.3047C29.2498 31.6694 29.1281 32.9866 28.8848 34.2561C28.6414 35.5151 28.2447 36.6841 27.6946 37.7632C27.155 38.8317 26.4409 39.7733 25.5522 40.5879C24.6742 41.3919 23.5951 42.0214 22.3149 42.4763C21.0454 42.9207 19.5537 43.1428 17.8398 43.1428H17.4907V39.9849ZM35.9624 39.9849H36.2798C37.7397 39.9849 38.9564 39.7944 39.9297 39.4136C40.9136 39.0221 41.6965 38.4826 42.2783 37.7949C42.8602 37.1073 43.2781 36.2979 43.532 35.3669C43.7859 34.436 43.9128 33.4256 43.9128 32.3359V28.3528C43.9128 27.4112 43.8123 26.586 43.6113 25.8772C43.4209 25.1578 43.1458 24.5601 42.7861 24.084C42.437 23.5973 42.0297 23.2323 41.5642 22.989C41.1093 22.7457 40.6174 22.624 40.0884 22.624C39.5065 22.624 38.9828 22.7563 38.5173 23.0208C38.0624 23.2747 37.6763 23.6291 37.3589 24.084C37.0521 24.5283 36.814 25.052 36.6448 25.655C36.4861 26.2475 36.4067 26.8822 36.4067 27.5593C36.4067 28.1941 36.4808 28.8077 36.6289 29.4001C36.7876 29.982 37.0203 30.5004 37.3271 30.9553C37.634 31.4102 38.0201 31.7699 38.4856 32.0344C38.9511 32.2989 39.4959 32.4312 40.1201 32.4312C40.7126 32.4312 41.2574 32.3201 41.7546 32.0979C42.2519 31.8652 42.6856 31.5531 43.0559 31.1616C43.4262 30.7702 43.7171 30.3311 43.9287 29.8445C44.1403 29.3578 44.2567 28.8606 44.2778 28.3528L45.7378 28.7971C45.7378 29.6012 45.5685 30.3946 45.23 31.1775C44.902 31.9498 44.4418 32.6586 43.8494 33.304C43.2675 33.9387 42.5851 34.4465 41.8022 34.8274C41.0299 35.2083 40.1889 35.3987 39.2791 35.3987C38.1788 35.3987 37.2055 35.1924 36.3591 34.7798C35.5234 34.3566 34.8251 33.7853 34.2644 33.0659C33.7143 32.3465 33.3017 31.5213 33.0266 30.5903C32.7515 29.6593 32.614 28.6807 32.614 27.6545C32.614 26.5437 32.7833 25.5016 33.1218 24.5283C33.4604 23.555 33.9523 22.6981 34.5977 21.9575C35.243 21.2064 36.0259 20.6245 36.9463 20.2119C37.8773 19.7887 38.9299 19.5771 40.1042 19.5771C41.3526 19.5771 42.4476 19.8205 43.3892 20.3071C44.3307 20.7938 45.1242 21.4656 45.7695 22.3225C46.4149 23.1794 46.9015 24.1739 47.2295 25.3059C47.5575 26.4379 47.7214 27.6545 47.7214 28.9558V30.3047C47.7214 31.6694 47.5998 32.9866 47.3564 34.2561C47.1131 35.5151 46.7164 36.6841 46.1663 37.7632C45.6267 38.8317 44.9126 39.7733 44.0239 40.5879C43.1458 41.3919 42.0667 42.0214 40.7866 42.4763C39.5171 42.9207 38.0254 43.1428 36.3115 43.1428H35.9624V39.9849Z" fill="#F94444"/>
</svg>
