<svg width="64" height="63" viewBox="0 0 64 63" fill="none" xmlns="http://www.w3.org/2000/svg">
<rect x="0.666504" width="63" height="63" rx="8" fill="#F94444" fill-opacity="0.1"/>
<path d="M25.521 19.8152V43H21.6965V24.3538L16.0312 26.2739V23.116L25.0608 19.8152H25.521ZM45.1035 19.7517H45.5796V22.8779H45.3098C43.9451 22.8779 42.7655 23.0895 41.771 23.5127C40.7871 23.9359 39.9778 24.5177 39.343 25.2583C38.7083 25.9989 38.2322 26.8664 37.9148 27.8608C37.608 28.8447 37.4546 29.8921 37.4546 31.0029V34.637C37.4546 35.5574 37.5551 36.372 37.7561 37.0808C37.9571 37.7791 38.2375 38.3662 38.5972 38.8423C38.9674 39.3078 39.3906 39.6622 39.8667 39.9055C40.3428 40.1488 40.8559 40.2705 41.406 40.2705C41.9773 40.2705 42.4957 40.1541 42.9612 39.9214C43.4267 39.6781 43.8234 39.3448 44.1514 38.9216C44.4793 38.4985 44.7279 37.9959 44.8972 37.4141C45.0665 36.8322 45.1511 36.1974 45.1511 35.5098C45.1511 34.8538 45.0665 34.2402 44.8972 33.6689C44.7385 33.0871 44.5005 32.5793 44.1831 32.1455C43.8657 31.7012 43.469 31.3573 42.9929 31.114C42.5274 30.8601 41.9879 30.7332 41.3743 30.7332C40.6125 30.7332 39.9196 30.913 39.2954 31.2727C38.6818 31.6324 38.1846 32.1032 37.8037 32.6851C37.4334 33.2563 37.2324 33.8647 37.2007 34.51L35.7407 34.0339C35.8254 33.05 36.0422 32.1667 36.3914 31.3838C36.7511 30.6009 37.2218 29.9344 37.8037 29.3843C38.3856 28.8341 39.0574 28.4163 39.8191 28.1306C40.5914 27.8344 41.4377 27.6863 42.3582 27.6863C43.4796 27.6863 44.4529 27.8979 45.2781 28.321C46.1033 28.7442 46.7856 29.3208 47.3252 30.0508C47.8753 30.7702 48.2826 31.5954 48.5471 32.5264C48.8222 33.4468 48.9597 34.4095 48.9597 35.4146C48.9597 36.5254 48.7904 37.5622 48.4519 38.5249C48.1134 39.4771 47.6161 40.3128 46.9602 41.0322C46.3149 41.7516 45.5267 42.3123 44.5957 42.7144C43.6753 43.1164 42.6279 43.3174 41.4536 43.3174C40.2158 43.3174 39.1103 43.0793 38.137 42.6033C37.1742 42.1272 36.3543 41.4713 35.6772 40.6355C35.0107 39.7997 34.5029 38.837 34.1538 37.7473C33.8047 36.6576 33.6301 35.5045 33.6301 34.2878V32.7009C33.6301 30.9447 33.8523 29.2891 34.2966 27.7339C34.741 26.1681 35.4233 24.7875 36.3438 23.592C37.2747 22.3966 38.4649 21.4603 39.9143 20.7832C41.3637 20.0955 43.0934 19.7517 45.1035 19.7517Z" fill="#F94444"/>
</svg>
