<svg width="63" height="63" viewBox="0 0 63 63" fill="none" xmlns="http://www.w3.org/2000/svg">
<rect width="63" height="63" rx="8" fill="#F94444" fill-opacity="0.1"/>
<path d="M38.75 28.0999L25.25 20.3149" stroke="#F94444" stroke-width="3" stroke-linecap="round" stroke-linejoin="round"/>
<path d="M45.5 37.9999V25.9999C45.4995 25.4738 45.3606 24.9571 45.0973 24.5016C44.834 24.0461 44.4556 23.6679 44 23.4049L33.5 17.4049C33.0439 17.1415 32.5266 17.0029 32 17.0029C31.4734 17.0029 30.9561 17.1415 30.5 17.4049L20 23.4049C19.5444 23.6679 19.166 24.0461 18.9027 24.5016C18.6394 24.9571 18.5005 25.4738 18.5 25.9999V37.9999C18.5005 38.5259 18.6394 39.0426 18.9027 39.4981C19.166 39.9536 19.5444 40.3318 20 40.5949L30.5 46.5949C30.9561 46.8582 31.4734 46.9968 32 46.9968C32.5266 46.9968 33.0439 46.8582 33.5 46.5949L44 40.5949C44.4556 40.3318 44.834 39.9536 45.0973 39.4981C45.3606 39.0426 45.4995 38.5259 45.5 37.9999Z" stroke="#F94444" stroke-width="3" stroke-linecap="round" stroke-linejoin="round"/>
<path d="M18.9048 24.4399L31.9998 32.0149L45.0948 24.4399" stroke="#F94444" stroke-width="3" stroke-linecap="round" stroke-linejoin="round"/>
<path d="M32 47.12V32" stroke="#F94444" stroke-width="3" stroke-linecap="round" stroke-linejoin="round"/>
</svg>
