<svg width="63" height="63" viewBox="0 0 63 63" fill="none" xmlns="http://www.w3.org/2000/svg">
<rect width="63" height="63" rx="8" fill="white" fill-opacity="0.16"/>
<path d="M33.6667 38.8571V21.7143C33.6667 20.7675 32.9205 20 32 20H18.6667C17.7462 20 17 20.7675 17 21.7143V38.8571C17 39.8039 17.7462 40.5714 18.6667 40.5714H20.3333M33.6667 38.8571C33.6667 39.8039 32.9205 40.5714 32 40.5714H27M33.6667 38.8571L33.6667 25.1429C33.6667 24.1961 34.4129 23.4286 35.3333 23.4286H39.643C40.085 23.4286 40.5089 23.6092 40.8215 23.9307L46.5118 29.7836C46.8244 30.1051 47 30.5411 47 30.9958V38.8571C47 39.8039 46.2538 40.5714 45.3333 40.5714H43.6667M33.6667 38.8571C33.6667 39.8039 34.4129 40.5714 35.3333 40.5714H37M20.3333 40.5714C20.3333 42.465 21.8257 44 23.6667 44C25.5076 44 27 42.465 27 40.5714M20.3333 40.5714C20.3333 38.6779 21.8257 37.1429 23.6667 37.1429C25.5076 37.1429 27 38.6779 27 40.5714M37 40.5714C37 42.465 38.4924 44 40.3333 44C42.1743 44 43.6667 42.465 43.6667 40.5714M37 40.5714C37 38.6779 38.4924 37.1429 40.3333 37.1429C42.1743 37.1429 43.6667 38.6779 43.6667 40.5714" stroke="white" stroke-width="3"/>
</svg>
