<svg width="63" height="63" viewBox="0 0 63 63" fill="none" xmlns="http://www.w3.org/2000/svg">
<rect width="63" height="63" rx="8" fill="white" fill-opacity="0.16"/>
<path d="M45.5 28V29.5C46.3284 29.5 47 28.8284 47 28H45.5ZM45.5 34H47C47 33.1716 46.3284 32.5 45.5 32.5V34ZM18.5 34V32.5C17.6716 32.5 17 33.1716 17 34H18.5ZM18.5 28H17C17 28.8284 17.6716 29.5 18.5 29.5V28ZM20.5 19C18.567 19 17 20.567 17 22.5H20C20 22.2239 20.2239 22 20.5 22V19ZM43.5 19H20.5V22H43.5V19ZM47 22.5C47 20.567 45.433 19 43.5 19V22C43.7761 22 44 22.2239 44 22.5H47ZM47 28V22.5H44V28H47ZM44 31C44 30.1716 44.6716 29.5 45.5 29.5V26.5C43.0147 26.5 41 28.5147 41 31H44ZM45.5 32.5C44.6716 32.5 44 31.8284 44 31H41C41 33.4853 43.0147 35.5 45.5 35.5V32.5ZM47 39.5V34H44V39.5H47ZM43.5 43C45.433 43 47 41.433 47 39.5H44C44 39.7761 43.7761 40 43.5 40V43ZM20.5 43H43.5V40H20.5V43ZM17 39.5C17 41.433 18.567 43 20.5 43V40C20.2239 40 20 39.7761 20 39.5H17ZM17 34V39.5H20V34H17ZM20 31C20 31.8284 19.3284 32.5 18.5 32.5V35.5C20.9853 35.5 23 33.4853 23 31H20ZM18.5 29.5C19.3284 29.5 20 30.1716 20 31H23C23 28.5147 20.9853 26.5 18.5 26.5V29.5ZM17 22.5V28H20V22.5H17Z" fill="white"/>
<path d="M36.5 20.5V23.5" stroke="white" stroke-width="3" stroke-linecap="round"/>
<path d="M36.5 29.5V32.5" stroke="white" stroke-width="3" stroke-linecap="round" stroke-linejoin="round"/>
<path d="M36.5 38.5V41.5" stroke="white" stroke-width="3" stroke-linecap="round" stroke-linejoin="round"/>
</svg>
