<svg width="63" height="63" viewBox="0 0 63 63" fill="none" xmlns="http://www.w3.org/2000/svg">
<rect width="63" height="63" rx="8" fill="white" fill-opacity="0.16"/>
<path d="M42.5 21.5L21.5 42.5" stroke="white" stroke-width="3" stroke-linecap="round" stroke-linejoin="round"/>
<path d="M40.25 44C42.3211 44 44 42.3211 44 40.25C44 38.1789 42.3211 36.5 40.25 36.5C38.1789 36.5 36.5 38.1789 36.5 40.25C36.5 42.3211 38.1789 44 40.25 44Z" stroke="white" stroke-width="3" stroke-linecap="round" stroke-linejoin="round"/>
<path d="M23.75 27.5C25.8211 27.5 27.5 25.8211 27.5 23.75C27.5 21.6789 25.8211 20 23.75 20C21.6789 20 20 21.6789 20 23.75C20 25.8211 21.6789 27.5 23.75 27.5Z" stroke="white" stroke-width="3" stroke-linecap="round" stroke-linejoin="round"/>
</svg>
